G04 #@! TF.GenerationSoftware,KiCad,Pcbnew,(5.0.0-3-g5ebb6b6)*
G04 #@! TF.CreationDate,2019-03-28T16:48:28+01:00*
G04 #@! TF.ProjectId,REX 9628 Extern-Kernel II-8,52455820393632382045787465726E2D,1.01*
G04 #@! TF.SameCoordinates,Original*
G04 #@! TF.FileFunction,Soldermask,Bot*
G04 #@! TF.FilePolarity,Negative*
%FSLAX46Y46*%
G04 Gerber Fmt 4.6, Leading zero omitted, Abs format (unit mm)*
G04 Created by KiCad (PCBNEW (5.0.0-3-g5ebb6b6)) date Thursday, 28. March 2019 um 16:48:28*
%MOMM*%
%LPD*%
G01*
G04 APERTURE LIST*
%ADD10C,2.000000*%
%ADD11O,1.924000X6.750000*%
%ADD12O,2.600000X1.900000*%
%ADD13O,1.900000X2.600000*%
%ADD14R,2.000000X2.000000*%
%ADD15O,2.000000X2.000000*%
%ADD16C,2.100000*%
%ADD17O,3.400000X2.900000*%
G04 APERTURE END LIST*
D10*
G04 #@! TO.C,C1*
X121285000Y-112498000D03*
X121285000Y-114998000D03*
G04 #@! TD*
G04 #@! TO.C,C2*
X121285000Y-94742000D03*
X121285000Y-92242000D03*
G04 #@! TD*
G04 #@! TO.C,C3*
X143967000Y-72874500D03*
X143967000Y-75374500D03*
G04 #@! TD*
G04 #@! TO.C,C4*
X172771000Y-75387200D03*
X172771000Y-72887200D03*
G04 #@! TD*
G04 #@! TO.C,C5*
X143358000Y-84912200D03*
X143358000Y-87412200D03*
G04 #@! TD*
D11*
G04 #@! TO.C,CN1*
X173990000Y-125069600D03*
X138430000Y-125069600D03*
X158750000Y-125069600D03*
X168910000Y-125069600D03*
X151130000Y-125069600D03*
X163830000Y-125069600D03*
X140970000Y-125069600D03*
X120650000Y-125069600D03*
X161290000Y-125069600D03*
X135890000Y-125069600D03*
X148590000Y-125069600D03*
X156210000Y-125069600D03*
X153670000Y-125069600D03*
X133350000Y-125069600D03*
X143510000Y-125069600D03*
X146050000Y-125069600D03*
X171450000Y-125069600D03*
X125730000Y-125069600D03*
X166370000Y-125069600D03*
X123190000Y-125069600D03*
X128270000Y-125069600D03*
X130810000Y-125069600D03*
G04 #@! TD*
D12*
G04 #@! TO.C,IC1*
X124460000Y-114998000D03*
X124460000Y-112458000D03*
X124460000Y-109918000D03*
X124460000Y-107378000D03*
X124460000Y-104838000D03*
X124460000Y-102298000D03*
X124460000Y-99758000D03*
X132080000Y-99758000D03*
X132080000Y-102298000D03*
X132080000Y-104838000D03*
X132080000Y-107378000D03*
X132080000Y-109918000D03*
X132080000Y-112458000D03*
X132080000Y-114998000D03*
G04 #@! TD*
G04 #@! TO.C,IC2*
X132080000Y-94742000D03*
X132080000Y-92202000D03*
X132080000Y-89662000D03*
X132080000Y-87122000D03*
X132080000Y-84582000D03*
X132080000Y-82042000D03*
X132080000Y-79502000D03*
X124460000Y-79502000D03*
X124460000Y-82042000D03*
X124460000Y-84582000D03*
X124460000Y-87122000D03*
X124460000Y-89662000D03*
X124460000Y-92202000D03*
X124460000Y-94742000D03*
G04 #@! TD*
D13*
G04 #@! TO.C,IC3*
X139675000Y-75044300D03*
X137135000Y-75044300D03*
X134595000Y-75044300D03*
X132055000Y-75044300D03*
X129515000Y-75044300D03*
X126975000Y-75044300D03*
X124435000Y-75044300D03*
X124435000Y-67424300D03*
X126975000Y-67424300D03*
X129515000Y-67424300D03*
X132055000Y-67424300D03*
X134595000Y-67424300D03*
X137135000Y-67424300D03*
X139675000Y-67424300D03*
G04 #@! TD*
G04 #@! TO.C,St.1*
X139548000Y-93802200D03*
X142088000Y-93802200D03*
X144628000Y-93802200D03*
X147168000Y-93802200D03*
X149708000Y-93802200D03*
X152248000Y-93802200D03*
X154788000Y-93802200D03*
X157328000Y-93802200D03*
X159868000Y-93802200D03*
X162408000Y-93802200D03*
X164948000Y-93802200D03*
X167488000Y-93802200D03*
X170028000Y-93802200D03*
X172568000Y-93802200D03*
X172568000Y-78562200D03*
X170028000Y-78562200D03*
X167488000Y-78562200D03*
X164948000Y-78562200D03*
X162408000Y-78562200D03*
X159868000Y-78562200D03*
X157328000Y-78562200D03*
X154788000Y-78562200D03*
X152248000Y-78562200D03*
X149708000Y-78562200D03*
X147168000Y-78562200D03*
X144628000Y-78562200D03*
X142088000Y-78562200D03*
X139548000Y-78562200D03*
G04 #@! TD*
G04 #@! TO.C,St.2*
X139573000Y-98552000D03*
X142113000Y-98552000D03*
X144653000Y-98552000D03*
X147193000Y-98552000D03*
X149733000Y-98552000D03*
X152273000Y-98552000D03*
X154813000Y-98552000D03*
X157353000Y-98552000D03*
X159893000Y-98552000D03*
X162433000Y-98552000D03*
X164973000Y-98552000D03*
X167513000Y-98552000D03*
X170053000Y-98552000D03*
X172593000Y-98552000D03*
X172593000Y-113792000D03*
X170053000Y-113792000D03*
X167513000Y-113792000D03*
X164973000Y-113792000D03*
X162433000Y-113792000D03*
X159893000Y-113792000D03*
X157353000Y-113792000D03*
X154813000Y-113792000D03*
X152273000Y-113792000D03*
X149733000Y-113792000D03*
X147193000Y-113792000D03*
X144653000Y-113792000D03*
X142113000Y-113792000D03*
X139573000Y-113792000D03*
G04 #@! TD*
D14*
G04 #@! TO.C,SW1*
X150495000Y-62941200D03*
D15*
X173355000Y-55321200D03*
X153035000Y-62941200D03*
X170815000Y-55321200D03*
X155575000Y-62941200D03*
X168275000Y-55321200D03*
X158115000Y-62941200D03*
X165735000Y-55321200D03*
X160655000Y-62941200D03*
X163195000Y-55321200D03*
X163195000Y-62941200D03*
X160655000Y-55321200D03*
X165735000Y-62941200D03*
X158115000Y-55321200D03*
X168275000Y-62941200D03*
X155575000Y-55321200D03*
X170815000Y-62941200D03*
X153035000Y-55321200D03*
X173355000Y-62941200D03*
X150495000Y-55321200D03*
G04 #@! TD*
D14*
G04 #@! TO.C,SW3*
X121285000Y-62941200D03*
D15*
X128905000Y-55321200D03*
X123825000Y-62941200D03*
X126365000Y-55321200D03*
X126365000Y-62941200D03*
X123825000Y-55321200D03*
X128905000Y-62941200D03*
X121285000Y-55321200D03*
G04 #@! TD*
D16*
G04 #@! TO.C,TP1*
X135826000Y-115252000D03*
G04 #@! TD*
D13*
G04 #@! TO.C,IC4*
X168427000Y-67487800D03*
X165887000Y-67487800D03*
X163347000Y-67487800D03*
X160807000Y-67487800D03*
X158267000Y-67487800D03*
X155727000Y-67487800D03*
X153187000Y-67487800D03*
X150647000Y-67487800D03*
X150647000Y-75107800D03*
X153187000Y-75107800D03*
X155727000Y-75107800D03*
X158267000Y-75107800D03*
X160807000Y-75107800D03*
X163347000Y-75107800D03*
X165887000Y-75107800D03*
X168427000Y-75107800D03*
G04 #@! TD*
G04 #@! TO.C,IC5*
X149708000Y-89992200D03*
X152248000Y-89992200D03*
X154788000Y-89992200D03*
X157328000Y-89992200D03*
X159868000Y-89992200D03*
X162408000Y-89992200D03*
X164948000Y-89992200D03*
X164948000Y-82372200D03*
X162408000Y-82372200D03*
X159868000Y-82372200D03*
X157328000Y-82372200D03*
X154788000Y-82372200D03*
X152248000Y-82372200D03*
X149708000Y-82372200D03*
G04 #@! TD*
D17*
G04 #@! TO.C,SW2*
X133423000Y-61671200D03*
X133423000Y-56671200D03*
X145923000Y-61671200D03*
X145923000Y-56671200D03*
G04 #@! TD*
M02*
