M48
;DRILL file {KiCad (5.0.0-3-g5ebb6b6)} date Thursday, 28. March 2019 um 16:48:30
;FORMAT={-:-/ absolute / inch / decimal}
FMAT,2
INCH,TZ
T1C0.0157
T2C0.0315
T3C0.0394
T4C0.0472
%
G90
G05
M72
T1
X4.8675Y-3.825
X4.9463Y-2.7898
X4.9924Y-4.7852
X5.025Y-2.41
X5.045Y-2.5575
X5.05Y-3.165
X5.0525Y-3.6775
X5.065Y-3.485
X5.0975Y-4.725
X5.1Y-4.0425
X5.1Y-4.3
X5.105Y-2.8625
X5.1875Y-2.8725
X5.2075Y-2.7675
X5.3Y-3.0375
X5.3275Y-2.8525
X5.3275Y-4.2925
X5.335Y-2.5325
X5.36Y-3.18
X5.395Y-3.7275
X5.415Y-3.56
X5.4375Y-4.1125
X5.4453Y-3.4129
X5.4467Y-3.4623
X5.5507Y-3.1972
X5.56Y-3.9825
X5.695Y-3.9583
X5.7788Y-4.6833
X5.7931Y-4.7634
X5.8157Y-4.7212
X5.8617Y-3.6349
X6.0375Y-2.7975
X6.1275Y-2.8375
X6.58Y-3.32
X6.5968Y-3.4866
X6.6825Y-4.6275
X6.695Y-3.245
X6.695Y-4.205
X6.8093Y-3.6205
X6.8423Y-3.7925
X6.8822Y-3.6487
T2
X4.9Y-3.13
X4.9Y-3.23
X4.9Y-3.33
X4.9Y-3.43
X4.9Y-3.53
X4.9Y-3.63
X4.9Y-3.73
X5.2Y-3.13
X5.2Y-3.23
X5.2Y-3.33
X5.2Y-3.43
X5.2Y-3.53
X5.2Y-3.63
X5.2Y-3.73
X5.644Y-3.343
X5.644Y-3.4414
X4.775Y-4.4291
X4.775Y-4.5275
X4.899Y-2.6545
X4.899Y-2.9545
X4.999Y-2.6545
X4.999Y-2.9545
X5.099Y-2.6545
X5.099Y-2.9545
X5.199Y-2.6545
X5.199Y-2.9545
X5.299Y-2.6545
X5.299Y-2.9545
X5.399Y-2.6545
X5.399Y-2.9545
X5.499Y-2.6545
X5.499Y-2.9545
X4.775Y-2.178
X4.775Y-2.478
X4.875Y-2.178
X4.875Y-2.478
X4.975Y-2.178
X4.975Y-2.478
X5.075Y-2.178
X5.075Y-2.478
X5.931Y-2.657
X5.931Y-2.957
X6.031Y-2.657
X6.031Y-2.957
X6.131Y-2.657
X6.131Y-2.957
X6.231Y-2.657
X6.231Y-2.957
X6.331Y-2.657
X6.331Y-2.957
X6.431Y-2.657
X6.431Y-2.957
X6.531Y-2.657
X6.531Y-2.957
X6.631Y-2.657
X6.631Y-2.957
X5.668Y-2.8691
X5.668Y-2.9675
X5.894Y-3.243
X5.894Y-3.543
X5.994Y-3.243
X5.994Y-3.543
X6.094Y-3.243
X6.094Y-3.543
X6.194Y-3.243
X6.194Y-3.543
X6.294Y-3.243
X6.294Y-3.543
X6.394Y-3.243
X6.394Y-3.543
X6.494Y-3.243
X6.494Y-3.543
X5.925Y-2.178
X5.925Y-2.478
X6.025Y-2.178
X6.025Y-2.478
X6.125Y-2.178
X6.125Y-2.478
X6.225Y-2.178
X6.225Y-2.478
X6.325Y-2.178
X6.325Y-2.478
X6.425Y-2.178
X6.425Y-2.478
X6.525Y-2.178
X6.525Y-2.478
X6.625Y-2.178
X6.625Y-2.478
X6.725Y-2.178
X6.725Y-2.478
X6.825Y-2.178
X6.825Y-2.478
X5.494Y-3.093
X5.494Y-3.693
X5.594Y-3.093
X5.594Y-3.693
X5.694Y-3.093
X5.694Y-3.693
X5.794Y-3.093
X5.794Y-3.693
X5.894Y-3.093
X5.894Y-3.693
X5.994Y-3.093
X5.994Y-3.693
X6.094Y-3.093
X6.094Y-3.693
X6.194Y-3.093
X6.194Y-3.693
X6.294Y-3.093
X6.294Y-3.693
X6.394Y-3.093
X6.394Y-3.693
X6.494Y-3.093
X6.494Y-3.693
X6.594Y-3.093
X6.594Y-3.693
X6.694Y-3.093
X6.694Y-3.693
X6.794Y-3.093
X6.794Y-3.693
X4.775Y-3.6316
X4.775Y-3.73
X4.9Y-3.9275
X4.9Y-4.0275
X4.9Y-4.1275
X4.9Y-4.2275
X4.9Y-4.3275
X4.9Y-4.4275
X4.9Y-4.5275
X5.2Y-3.9275
X5.2Y-4.0275
X5.2Y-4.1275
X5.2Y-4.2275
X5.2Y-4.3275
X5.2Y-4.4275
X5.2Y-4.5275
X6.802Y-2.8696
X6.802Y-2.968
X5.495Y-3.88
X5.495Y-4.48
X5.595Y-3.88
X5.595Y-4.48
X5.695Y-3.88
X5.695Y-4.48
X5.795Y-3.88
X5.795Y-4.48
X5.895Y-3.88
X5.895Y-4.48
X5.995Y-3.88
X5.995Y-4.48
X6.095Y-3.88
X6.095Y-4.48
X6.195Y-3.88
X6.195Y-4.48
X6.295Y-3.88
X6.295Y-4.48
X6.395Y-3.88
X6.395Y-4.48
X6.495Y-3.88
X6.495Y-4.48
X6.595Y-3.88
X6.595Y-4.48
X6.695Y-3.88
X6.695Y-4.48
X6.795Y-3.88
X6.795Y-4.48
T3
X5.3475Y-4.5375
T4
X5.2529Y-2.2311
X5.2529Y-2.428
X5.745Y-2.2311
X5.745Y-2.428
T0
M30
