G04 #@! TF.GenerationSoftware,KiCad,Pcbnew,(5.0.0-3-g5ebb6b6)*
G04 #@! TF.CreationDate,2019-03-28T16:48:28+01:00*
G04 #@! TF.ProjectId,REX 9628 Extern-Kernel II-8,52455820393632382045787465726E2D,1.01*
G04 #@! TF.SameCoordinates,Original*
G04 #@! TF.FileFunction,Copper,L1,Top,Signal*
G04 #@! TF.FilePolarity,Positive*
%FSLAX46Y46*%
G04 Gerber Fmt 4.6, Leading zero omitted, Abs format (unit mm)*
G04 Created by KiCad (PCBNEW (5.0.0-3-g5ebb6b6)) date Thursday, 28. March 2019 um 16:48:28*
%MOMM*%
%LPD*%
G01*
G04 APERTURE LIST*
G04 #@! TA.AperFunction,ComponentPad*
%ADD10C,1.600000*%
G04 #@! TD*
G04 #@! TA.AperFunction,SMDPad,CuDef*
%ADD11O,1.524000X6.350000*%
G04 #@! TD*
G04 #@! TA.AperFunction,ComponentPad*
%ADD12O,2.200000X1.500000*%
G04 #@! TD*
G04 #@! TA.AperFunction,ComponentPad*
%ADD13O,1.500000X2.200000*%
G04 #@! TD*
G04 #@! TA.AperFunction,ComponentPad*
%ADD14R,1.600000X1.600000*%
G04 #@! TD*
G04 #@! TA.AperFunction,ComponentPad*
%ADD15O,1.600000X1.600000*%
G04 #@! TD*
G04 #@! TA.AperFunction,ComponentPad*
%ADD16C,1.700000*%
G04 #@! TD*
G04 #@! TA.AperFunction,ComponentPad*
%ADD17O,3.000000X2.500000*%
G04 #@! TD*
G04 #@! TA.AperFunction,ViaPad*
%ADD18C,0.800000*%
G04 #@! TD*
G04 #@! TA.AperFunction,Conductor*
%ADD19C,0.500000*%
G04 #@! TD*
G04 #@! TA.AperFunction,Conductor*
%ADD20C,0.300000*%
G04 #@! TD*
G04 #@! TA.AperFunction,Conductor*
%ADD21C,0.254000*%
G04 #@! TD*
G04 APERTURE END LIST*
D10*
G04 #@! TO.P,C1,2*
G04 #@! TO.N,GND*
X121285000Y-112498000D03*
G04 #@! TO.P,C1,1*
G04 #@! TO.N,+5V*
X121285000Y-114998000D03*
G04 #@! TD*
G04 #@! TO.P,C2,1*
G04 #@! TO.N,+5V*
X121285000Y-94742000D03*
G04 #@! TO.P,C2,2*
G04 #@! TO.N,GND*
X121285000Y-92242000D03*
G04 #@! TD*
G04 #@! TO.P,C3,2*
G04 #@! TO.N,GND*
X143967000Y-72874500D03*
G04 #@! TO.P,C3,1*
G04 #@! TO.N,+5V*
X143967000Y-75374500D03*
G04 #@! TD*
G04 #@! TO.P,C4,1*
G04 #@! TO.N,+5V*
X172771000Y-75387200D03*
G04 #@! TO.P,C4,2*
G04 #@! TO.N,GND*
X172771000Y-72887200D03*
G04 #@! TD*
G04 #@! TO.P,C5,1*
G04 #@! TO.N,+5V*
X143358000Y-84912200D03*
G04 #@! TO.P,C5,2*
G04 #@! TO.N,GND*
X143358000Y-87412200D03*
G04 #@! TD*
D11*
G04 #@! TO.P,CN1,11*
G04 #@! TO.N,N/C*
X146050000Y-125069600D03*
G04 #@! TO.P,CN1,12*
G04 #@! TO.N,/BA*
X148590000Y-125069600D03*
G04 #@! TO.P,CN1,13*
G04 #@! TO.N,N/C*
X151130000Y-125069600D03*
G04 #@! TO.P,CN1,14*
G04 #@! TO.N,/D7*
X153670000Y-125069600D03*
G04 #@! TO.P,CN1,15*
G04 #@! TO.N,/D6*
X156210000Y-125069600D03*
G04 #@! TO.P,CN1,16*
G04 #@! TO.N,/D5*
X158750000Y-125069600D03*
G04 #@! TO.P,CN1,17*
G04 #@! TO.N,/D4*
X161290000Y-125069600D03*
G04 #@! TO.P,CN1,18*
G04 #@! TO.N,/D3*
X163830000Y-125069600D03*
G04 #@! TO.P,CN1,19*
G04 #@! TO.N,/D2*
X166370000Y-125069600D03*
G04 #@! TO.P,CN1,20*
G04 #@! TO.N,/D1*
X168910000Y-125069600D03*
G04 #@! TO.P,CN1,21*
G04 #@! TO.N,/D0*
X171450000Y-125069600D03*
G04 #@! TO.P,CN1,22*
G04 #@! TO.N,GND*
X173990000Y-125069600D03*
G04 #@! TO.P,CN1,10*
G04 #@! TO.N,N/C*
X143510000Y-125069600D03*
G04 #@! TO.P,CN1,9*
X140970000Y-125069600D03*
G04 #@! TO.P,CN1,8*
G04 #@! TO.N,/~GAME*
X138430000Y-125069600D03*
G04 #@! TO.P,CN1,7*
G04 #@! TO.N,N/C*
X135890000Y-125069600D03*
G04 #@! TO.P,CN1,6*
X133350000Y-125069600D03*
G04 #@! TO.P,CN1,5*
G04 #@! TO.N,/R~W*
X130810000Y-125069600D03*
G04 #@! TO.P,CN1,4*
G04 #@! TO.N,/~IRQ*
X128270000Y-125069600D03*
G04 #@! TO.P,CN1,3*
G04 #@! TO.N,+5V*
X125730000Y-125069600D03*
G04 #@! TO.P,CN1,2*
X123190000Y-125069600D03*
G04 #@! TO.P,CN1,1*
G04 #@! TO.N,GND*
X120650000Y-125069600D03*
G04 #@! TD*
D12*
G04 #@! TO.P,IC1,14*
G04 #@! TO.N,+5V*
X124460000Y-114998000D03*
G04 #@! TO.P,IC1,13*
G04 #@! TO.N,N/C*
X124460000Y-112458000D03*
G04 #@! TO.P,IC1,12*
X124460000Y-109918000D03*
G04 #@! TO.P,IC1,11*
G04 #@! TO.N,Net-(IC1-Pad11)*
X124460000Y-107378000D03*
G04 #@! TO.P,IC1,10*
G04 #@! TO.N,N/C*
X124460000Y-104838000D03*
G04 #@! TO.P,IC1,9*
X124460000Y-102298000D03*
G04 #@! TO.P,IC1,8*
G04 #@! TO.N,Net-(IC1-Pad8)*
X124460000Y-99758000D03*
G04 #@! TO.P,IC1,7*
G04 #@! TO.N,GND*
X132080000Y-99758000D03*
G04 #@! TO.P,IC1,6*
G04 #@! TO.N,/BA*
X132080000Y-102298000D03*
G04 #@! TO.P,IC1,5*
G04 #@! TO.N,/R~W*
X132080000Y-104838000D03*
G04 #@! TO.P,IC1,4*
G04 #@! TO.N,/A13*
X132080000Y-107378000D03*
G04 #@! TO.P,IC1,3*
G04 #@! TO.N,/A14*
X132080000Y-109918000D03*
G04 #@! TO.P,IC1,2*
G04 #@! TO.N,/A15*
X132080000Y-112458000D03*
G04 #@! TO.P,IC1,1*
G04 #@! TO.N,/Phi2*
X132080000Y-114998000D03*
G04 #@! TD*
G04 #@! TO.P,IC2,1*
G04 #@! TO.N,Net-(IC2-Pad1)*
X132080000Y-94742000D03*
G04 #@! TO.P,IC2,2*
G04 #@! TO.N,Net-(IC2-Pad2)*
X132080000Y-92202000D03*
G04 #@! TO.P,IC2,3*
G04 #@! TO.N,Net-(IC2-Pad3)*
X132080000Y-89662000D03*
G04 #@! TO.P,IC2,4*
G04 #@! TO.N,Net-(IC2-Pad1)*
X132080000Y-87122000D03*
G04 #@! TO.P,IC2,5*
G04 #@! TO.N,Net-(IC2-Pad5)*
X132080000Y-84582000D03*
G04 #@! TO.P,IC2,6*
G04 #@! TO.N,Net-(IC2-Pad6)*
X132080000Y-82042000D03*
G04 #@! TO.P,IC2,7*
G04 #@! TO.N,GND*
X132080000Y-79502000D03*
G04 #@! TO.P,IC2,8*
G04 #@! TO.N,N/C*
X124460000Y-79502000D03*
G04 #@! TO.P,IC2,9*
G04 #@! TO.N,+5V*
X124460000Y-82042000D03*
G04 #@! TO.P,IC2,10*
X124460000Y-84582000D03*
G04 #@! TO.P,IC2,11*
G04 #@! TO.N,Net-(IC2-Pad11)*
X124460000Y-87122000D03*
G04 #@! TO.P,IC2,12*
G04 #@! TO.N,Net-(IC2-Pad12)*
X124460000Y-89662000D03*
G04 #@! TO.P,IC2,13*
G04 #@! TO.N,Net-(IC2-Pad1)*
X124460000Y-92202000D03*
G04 #@! TO.P,IC2,14*
G04 #@! TO.N,+5V*
X124460000Y-94742000D03*
G04 #@! TD*
D13*
G04 #@! TO.P,IC3,14*
G04 #@! TO.N,+5V*
X139675000Y-75044300D03*
G04 #@! TO.P,IC3,13*
G04 #@! TO.N,Net-(IC3-Pad10)*
X137135000Y-75044300D03*
G04 #@! TO.P,IC3,12*
G04 #@! TO.N,Net-(IC2-Pad3)*
X134595000Y-75044300D03*
G04 #@! TO.P,IC3,11*
X132055000Y-75044300D03*
G04 #@! TO.P,IC3,10*
G04 #@! TO.N,Net-(IC3-Pad10)*
X129515000Y-75044300D03*
G04 #@! TO.P,IC3,9*
G04 #@! TO.N,Net-(IC2-Pad11)*
X126975000Y-75044300D03*
G04 #@! TO.P,IC3,8*
G04 #@! TO.N,Net-(IC3-Pad5)*
X124435000Y-75044300D03*
G04 #@! TO.P,IC3,7*
G04 #@! TO.N,GND*
X124435000Y-67424300D03*
G04 #@! TO.P,IC3,6*
G04 #@! TO.N,Net-(IC2-Pad11)*
X126975000Y-67424300D03*
G04 #@! TO.P,IC3,5*
G04 #@! TO.N,Net-(IC3-Pad5)*
X129515000Y-67424300D03*
G04 #@! TO.P,IC3,4*
G04 #@! TO.N,Net-(IC3-Pad1)*
X132055000Y-67424300D03*
G04 #@! TO.P,IC3,3*
G04 #@! TO.N,Net-(IC2-Pad6)*
X134595000Y-67424300D03*
G04 #@! TO.P,IC3,2*
X137135000Y-67424300D03*
G04 #@! TO.P,IC3,1*
G04 #@! TO.N,Net-(IC3-Pad1)*
X139675000Y-67424300D03*
G04 #@! TD*
G04 #@! TO.P,St.1,1*
G04 #@! TO.N,+5V*
X139548000Y-93802200D03*
G04 #@! TO.P,St.1,2*
G04 #@! TO.N,/A12*
X142088000Y-93802200D03*
G04 #@! TO.P,St.1,3*
G04 #@! TO.N,/A7*
X144628000Y-93802200D03*
G04 #@! TO.P,St.1,4*
G04 #@! TO.N,/A6*
X147168000Y-93802200D03*
G04 #@! TO.P,St.1,5*
G04 #@! TO.N,/A5*
X149708000Y-93802200D03*
G04 #@! TO.P,St.1,6*
G04 #@! TO.N,/A4*
X152248000Y-93802200D03*
G04 #@! TO.P,St.1,7*
G04 #@! TO.N,/A3*
X154788000Y-93802200D03*
G04 #@! TO.P,St.1,8*
G04 #@! TO.N,/A2*
X157328000Y-93802200D03*
G04 #@! TO.P,St.1,9*
G04 #@! TO.N,/A1*
X159868000Y-93802200D03*
G04 #@! TO.P,St.1,10*
G04 #@! TO.N,/A0*
X162408000Y-93802200D03*
G04 #@! TO.P,St.1,11*
G04 #@! TO.N,/D0*
X164948000Y-93802200D03*
G04 #@! TO.P,St.1,12*
G04 #@! TO.N,/D1*
X167488000Y-93802200D03*
G04 #@! TO.P,St.1,13*
G04 #@! TO.N,/D2*
X170028000Y-93802200D03*
G04 #@! TO.P,St.1,14*
G04 #@! TO.N,GND*
X172568000Y-93802200D03*
G04 #@! TO.P,St.1,15*
G04 #@! TO.N,/D3*
X172568000Y-78562200D03*
G04 #@! TO.P,St.1,16*
G04 #@! TO.N,/D4*
X170028000Y-78562200D03*
G04 #@! TO.P,St.1,17*
G04 #@! TO.N,/D5*
X167488000Y-78562200D03*
G04 #@! TO.P,St.1,18*
G04 #@! TO.N,/D6*
X164948000Y-78562200D03*
G04 #@! TO.P,St.1,19*
G04 #@! TO.N,/D7*
X162408000Y-78562200D03*
G04 #@! TO.P,St.1,20*
G04 #@! TO.N,Net-(IC5-Pad6)*
X159868000Y-78562200D03*
G04 #@! TO.P,St.1,21*
G04 #@! TO.N,/A10*
X157328000Y-78562200D03*
G04 #@! TO.P,St.1,22*
G04 #@! TO.N,/~ROMH*
X154788000Y-78562200D03*
G04 #@! TO.P,St.1,23*
G04 #@! TO.N,/A11*
X152248000Y-78562200D03*
G04 #@! TO.P,St.1,24*
G04 #@! TO.N,/A9*
X149708000Y-78562200D03*
G04 #@! TO.P,St.1,25*
G04 #@! TO.N,/A8*
X147168000Y-78562200D03*
G04 #@! TO.P,St.1,26*
G04 #@! TO.N,Net-(IC3-Pad10)*
X144628000Y-78562200D03*
G04 #@! TO.P,St.1,27*
G04 #@! TO.N,Net-(SW3-Pad1)*
X142088000Y-78562200D03*
G04 #@! TO.P,St.1,28*
G04 #@! TO.N,+5V*
X139548000Y-78562200D03*
G04 #@! TD*
G04 #@! TO.P,St.2,28*
G04 #@! TO.N,+5V*
X139573000Y-98552000D03*
G04 #@! TO.P,St.2,27*
G04 #@! TO.N,Net-(SW3-Pad3)*
X142113000Y-98552000D03*
G04 #@! TO.P,St.2,26*
G04 #@! TO.N,Net-(IC3-Pad10)*
X144653000Y-98552000D03*
G04 #@! TO.P,St.2,25*
G04 #@! TO.N,/A8*
X147193000Y-98552000D03*
G04 #@! TO.P,St.2,24*
G04 #@! TO.N,/A9*
X149733000Y-98552000D03*
G04 #@! TO.P,St.2,23*
G04 #@! TO.N,/A11*
X152273000Y-98552000D03*
G04 #@! TO.P,St.2,22*
G04 #@! TO.N,/~ROMH*
X154813000Y-98552000D03*
G04 #@! TO.P,St.2,21*
G04 #@! TO.N,/A10*
X157353000Y-98552000D03*
G04 #@! TO.P,St.2,20*
G04 #@! TO.N,Net-(IC2-Pad11)*
X159893000Y-98552000D03*
G04 #@! TO.P,St.2,19*
G04 #@! TO.N,/D7*
X162433000Y-98552000D03*
G04 #@! TO.P,St.2,18*
G04 #@! TO.N,/D6*
X164973000Y-98552000D03*
G04 #@! TO.P,St.2,17*
G04 #@! TO.N,/D5*
X167513000Y-98552000D03*
G04 #@! TO.P,St.2,16*
G04 #@! TO.N,/D4*
X170053000Y-98552000D03*
G04 #@! TO.P,St.2,15*
G04 #@! TO.N,/D3*
X172593000Y-98552000D03*
G04 #@! TO.P,St.2,14*
G04 #@! TO.N,GND*
X172593000Y-113792000D03*
G04 #@! TO.P,St.2,13*
G04 #@! TO.N,/D2*
X170053000Y-113792000D03*
G04 #@! TO.P,St.2,12*
G04 #@! TO.N,/D1*
X167513000Y-113792000D03*
G04 #@! TO.P,St.2,11*
G04 #@! TO.N,/D0*
X164973000Y-113792000D03*
G04 #@! TO.P,St.2,10*
G04 #@! TO.N,/A0*
X162433000Y-113792000D03*
G04 #@! TO.P,St.2,9*
G04 #@! TO.N,/A1*
X159893000Y-113792000D03*
G04 #@! TO.P,St.2,8*
G04 #@! TO.N,/A2*
X157353000Y-113792000D03*
G04 #@! TO.P,St.2,7*
G04 #@! TO.N,/A3*
X154813000Y-113792000D03*
G04 #@! TO.P,St.2,6*
G04 #@! TO.N,/A4*
X152273000Y-113792000D03*
G04 #@! TO.P,St.2,5*
G04 #@! TO.N,/A5*
X149733000Y-113792000D03*
G04 #@! TO.P,St.2,4*
G04 #@! TO.N,/A6*
X147193000Y-113792000D03*
G04 #@! TO.P,St.2,3*
G04 #@! TO.N,/A7*
X144653000Y-113792000D03*
G04 #@! TO.P,St.2,2*
G04 #@! TO.N,/A12*
X142113000Y-113792000D03*
G04 #@! TO.P,St.2,1*
G04 #@! TO.N,+5V*
X139573000Y-113792000D03*
G04 #@! TD*
D14*
G04 #@! TO.P,SW1,1*
G04 #@! TO.N,Net-(IC4-Pad10)*
X150495000Y-62941200D03*
D15*
G04 #@! TO.P,SW1,11*
G04 #@! TO.N,Net-(IC1-Pad8)*
X173355000Y-55321200D03*
G04 #@! TO.P,SW1,2*
G04 #@! TO.N,Net-(IC4-Pad11)*
X153035000Y-62941200D03*
G04 #@! TO.P,SW1,12*
G04 #@! TO.N,GND*
X170815000Y-55321200D03*
G04 #@! TO.P,SW1,3*
G04 #@! TO.N,Net-(IC4-Pad12)*
X155575000Y-62941200D03*
G04 #@! TO.P,SW1,13*
G04 #@! TO.N,GND*
X168275000Y-55321200D03*
G04 #@! TO.P,SW1,4*
G04 #@! TO.N,Net-(IC4-Pad13)*
X158115000Y-62941200D03*
G04 #@! TO.P,SW1,14*
G04 #@! TO.N,GND*
X165735000Y-55321200D03*
G04 #@! TO.P,SW1,5*
G04 #@! TO.N,Net-(IC4-Pad1)*
X160655000Y-62941200D03*
G04 #@! TO.P,SW1,15*
G04 #@! TO.N,GND*
X163195000Y-55321200D03*
G04 #@! TO.P,SW1,6*
G04 #@! TO.N,Net-(IC4-Pad2)*
X163195000Y-62941200D03*
G04 #@! TO.P,SW1,16*
G04 #@! TO.N,GND*
X160655000Y-55321200D03*
G04 #@! TO.P,SW1,7*
G04 #@! TO.N,Net-(IC4-Pad3)*
X165735000Y-62941200D03*
G04 #@! TO.P,SW1,17*
G04 #@! TO.N,GND*
X158115000Y-55321200D03*
G04 #@! TO.P,SW1,8*
G04 #@! TO.N,Net-(IC4-Pad4)*
X168275000Y-62941200D03*
G04 #@! TO.P,SW1,18*
G04 #@! TO.N,GND*
X155575000Y-55321200D03*
G04 #@! TO.P,SW1,9*
G04 #@! TO.N,/~IRQ*
X170815000Y-62941200D03*
G04 #@! TO.P,SW1,19*
G04 #@! TO.N,GND*
X153035000Y-55321200D03*
G04 #@! TO.P,SW1,10*
G04 #@! TO.N,/~GAME*
X173355000Y-62941200D03*
G04 #@! TO.P,SW1,20*
G04 #@! TO.N,GND*
X150495000Y-55321200D03*
G04 #@! TD*
D14*
G04 #@! TO.P,SW3,1*
G04 #@! TO.N,Net-(SW3-Pad1)*
X121285000Y-62941200D03*
D15*
G04 #@! TO.P,SW3,5*
G04 #@! TO.N,Net-(IC3-Pad1)*
X128905000Y-55321200D03*
G04 #@! TO.P,SW3,2*
G04 #@! TO.N,Net-(SW3-Pad1)*
X123825000Y-62941200D03*
G04 #@! TO.P,SW3,6*
G04 #@! TO.N,+5V*
X126365000Y-55321200D03*
G04 #@! TO.P,SW3,3*
G04 #@! TO.N,Net-(SW3-Pad3)*
X126365000Y-62941200D03*
G04 #@! TO.P,SW3,7*
G04 #@! TO.N,Net-(IC3-Pad1)*
X123825000Y-55321200D03*
G04 #@! TO.P,SW3,4*
G04 #@! TO.N,Net-(SW3-Pad3)*
X128905000Y-62941200D03*
G04 #@! TO.P,SW3,8*
G04 #@! TO.N,+5V*
X121285000Y-55321200D03*
G04 #@! TD*
D16*
G04 #@! TO.P,TP1,1*
G04 #@! TO.N,Net-(IC1-Pad11)*
X135826000Y-115252000D03*
G04 #@! TD*
D13*
G04 #@! TO.P,IC4,1*
G04 #@! TO.N,Net-(IC4-Pad1)*
X168427000Y-67487800D03*
G04 #@! TO.P,IC4,2*
G04 #@! TO.N,Net-(IC4-Pad2)*
X165887000Y-67487800D03*
G04 #@! TO.P,IC4,3*
G04 #@! TO.N,Net-(IC4-Pad3)*
X163347000Y-67487800D03*
G04 #@! TO.P,IC4,4*
G04 #@! TO.N,Net-(IC4-Pad4)*
X160807000Y-67487800D03*
G04 #@! TO.P,IC4,5*
G04 #@! TO.N,GND*
X158267000Y-67487800D03*
G04 #@! TO.P,IC4,6*
G04 #@! TO.N,Net-(IC2-Pad12)*
X155727000Y-67487800D03*
G04 #@! TO.P,IC4,7*
G04 #@! TO.N,Net-(IC2-Pad5)*
X153187000Y-67487800D03*
G04 #@! TO.P,IC4,8*
G04 #@! TO.N,GND*
X150647000Y-67487800D03*
G04 #@! TO.P,IC4,9*
G04 #@! TO.N,Net-(IC2-Pad2)*
X150647000Y-75107800D03*
G04 #@! TO.P,IC4,10*
G04 #@! TO.N,Net-(IC4-Pad10)*
X153187000Y-75107800D03*
G04 #@! TO.P,IC4,11*
G04 #@! TO.N,Net-(IC4-Pad11)*
X155727000Y-75107800D03*
G04 #@! TO.P,IC4,12*
G04 #@! TO.N,Net-(IC4-Pad12)*
X158267000Y-75107800D03*
G04 #@! TO.P,IC4,13*
G04 #@! TO.N,Net-(IC4-Pad13)*
X160807000Y-75107800D03*
G04 #@! TO.P,IC4,14*
G04 #@! TO.N,N/C*
X163347000Y-75107800D03*
G04 #@! TO.P,IC4,15*
X165887000Y-75107800D03*
G04 #@! TO.P,IC4,16*
G04 #@! TO.N,+5V*
X168427000Y-75107800D03*
G04 #@! TD*
G04 #@! TO.P,IC5,1*
G04 #@! TO.N,/~ROMH*
X149708000Y-89992200D03*
G04 #@! TO.P,IC5,2*
X152248000Y-89992200D03*
G04 #@! TO.P,IC5,3*
G04 #@! TO.N,Net-(IC2-Pad1)*
X154788000Y-89992200D03*
G04 #@! TO.P,IC5,4*
G04 #@! TO.N,Net-(IC2-Pad11)*
X157328000Y-89992200D03*
G04 #@! TO.P,IC5,5*
X159868000Y-89992200D03*
G04 #@! TO.P,IC5,6*
G04 #@! TO.N,Net-(IC5-Pad6)*
X162408000Y-89992200D03*
G04 #@! TO.P,IC5,7*
G04 #@! TO.N,GND*
X164948000Y-89992200D03*
G04 #@! TO.P,IC5,8*
G04 #@! TO.N,N/C*
X164948000Y-82372200D03*
G04 #@! TO.P,IC5,9*
G04 #@! TO.N,+5V*
X162408000Y-82372200D03*
G04 #@! TO.P,IC5,10*
X159868000Y-82372200D03*
G04 #@! TO.P,IC5,11*
G04 #@! TO.N,N/C*
X157328000Y-82372200D03*
G04 #@! TO.P,IC5,12*
G04 #@! TO.N,+5V*
X154788000Y-82372200D03*
G04 #@! TO.P,IC5,13*
X152248000Y-82372200D03*
G04 #@! TO.P,IC5,14*
X149708000Y-82372200D03*
G04 #@! TD*
D17*
G04 #@! TO.P,SW2,1*
G04 #@! TO.N,/~RESET*
X133423000Y-61671200D03*
G04 #@! TO.P,SW2,2*
G04 #@! TO.N,GND*
X133423000Y-56671200D03*
G04 #@! TO.P,SW2,1*
G04 #@! TO.N,/~RESET*
X145923000Y-61671200D03*
G04 #@! TO.P,SW2,2*
G04 #@! TO.N,GND*
X145923000Y-56671200D03*
G04 #@! TD*
D18*
G04 #@! TO.N,GND*
X169735500Y-117538500D03*
X125635300Y-70860000D03*
X129667000Y-72707500D03*
X135509000Y-64325500D03*
X134620000Y-77152500D03*
X128270000Y-80391000D03*
X170053000Y-82423000D03*
X129540000Y-102679500D03*
X123634500Y-97155000D03*
X173793300Y-96329500D03*
X170053000Y-106807000D03*
X138112500Y-104457500D03*
X128333500Y-93408500D03*
X128651000Y-88519000D03*
X136144000Y-80772000D03*
X137541000Y-90424000D03*
X137033000Y-94678500D03*
X128143000Y-64960500D03*
X127635000Y-61214000D03*
X129476500Y-120015000D03*
X129540000Y-109220000D03*
X141224000Y-101155500D03*
X135318500Y-109029500D03*
X167132000Y-84328000D03*
X153352500Y-71056500D03*
X155638500Y-72072500D03*
X131762500Y-72961500D03*
X132270500Y-70294500D03*
X135318500Y-72453500D03*
G04 #@! TO.N,/D1*
X167558300Y-88558400D03*
X172956000Y-91959600D03*
X174808000Y-92676700D03*
G04 #@! TO.N,/~GAME*
X138345100Y-87941900D03*
G04 #@! TO.N,/~IRQ*
X138311300Y-86688300D03*
G04 #@! TO.N,/A9*
X147145700Y-120990900D03*
G04 #@! TO.N,/A7*
X144653000Y-100539700D03*
G04 #@! TO.N,/A11*
X146781300Y-118955300D03*
G04 #@! TO.N,/A10*
X147718000Y-119918600D03*
G04 #@! TO.N,/~RESET*
X126806400Y-121544300D03*
G04 #@! TO.N,/~ROMH*
X148887900Y-92327700D03*
G04 #@! TO.N,Net-(IC2-Pad12)*
X140987600Y-81208500D03*
G04 #@! TD*
D19*
G04 #@! TO.N,GND*
X153035000Y-55321200D02*
X155575000Y-55321200D01*
X170815000Y-55321200D02*
X170815000Y-56571500D01*
X170815000Y-56571500D02*
X172065300Y-57821800D01*
X172065300Y-57821800D02*
X172065300Y-72181500D01*
X172065300Y-72181500D02*
X172771000Y-72887200D01*
X121285000Y-112498000D02*
X120028900Y-113754100D01*
X120028900Y-113754100D02*
X120028900Y-120823200D01*
X120028900Y-120823200D02*
X120650000Y-121444300D01*
X120650000Y-125069600D02*
X120650000Y-121444300D01*
X143358000Y-87412200D02*
X144615400Y-86154800D01*
X144615400Y-86154800D02*
X144615400Y-82832000D01*
X144615400Y-82832000D02*
X143358000Y-81574600D01*
X143358000Y-81574600D02*
X143358000Y-77511200D01*
X143358000Y-77511200D02*
X142693700Y-76846900D01*
X142693700Y-76846900D02*
X142693700Y-74147800D01*
X142693700Y-74147800D02*
X143967000Y-72874500D01*
X172568000Y-93802200D02*
X173768300Y-93802200D01*
X173793300Y-113792000D02*
X173793300Y-96329500D01*
X173793300Y-93827200D02*
X173768300Y-93802200D01*
X173618200Y-113792000D02*
X173793300Y-113792000D01*
X172593000Y-113792000D02*
X173618200Y-113792000D01*
X133423000Y-56671200D02*
X131472700Y-56671200D01*
X124435000Y-67424300D02*
X125635300Y-67424300D01*
X125635300Y-67424300D02*
X125635300Y-66224000D01*
X125635300Y-66224000D02*
X127635000Y-64224300D01*
X127635000Y-64224300D02*
X127635000Y-61214000D01*
X127635000Y-60508900D02*
X131472700Y-56671200D01*
X173990000Y-125069600D02*
X173990000Y-121444300D01*
X173793300Y-113792000D02*
X173793300Y-121247600D01*
X173793300Y-121247600D02*
X173990000Y-121444300D01*
X173793300Y-96329500D02*
X173793300Y-93827200D01*
X127635000Y-61214000D02*
X127635000Y-60508900D01*
G04 #@! TO.N,+5V*
X124460000Y-84582000D02*
X122909700Y-86132300D01*
X122909700Y-86132300D02*
X122909700Y-94742000D01*
X124460000Y-84582000D02*
X124460000Y-82042000D01*
X122097400Y-95554300D02*
X122569700Y-96026700D01*
X122569700Y-96026700D02*
X122569700Y-113713300D01*
X121285000Y-94742000D02*
X122097400Y-95554300D01*
X122909700Y-94742000D02*
X122097400Y-95554300D01*
X124460000Y-94742000D02*
X122909700Y-94742000D01*
X139548000Y-78562200D02*
X139548000Y-80112500D01*
X140045400Y-84912200D02*
X140045400Y-91754500D01*
X140045400Y-91754500D02*
X139548000Y-92251900D01*
X139548000Y-80112500D02*
X140045400Y-80609900D01*
X140045400Y-80609900D02*
X140045400Y-84912200D01*
X143358000Y-84912200D02*
X140045400Y-84912200D01*
X139675000Y-76594600D02*
X139548000Y-76721600D01*
X139548000Y-76721600D02*
X139548000Y-78562200D01*
X139548000Y-93802200D02*
X139548000Y-92251900D01*
X139573000Y-98552000D02*
X139573000Y-113792000D01*
X126365000Y-55321200D02*
X125114700Y-55321200D01*
X121285000Y-55321200D02*
X122535300Y-55321200D01*
X122535300Y-55321200D02*
X122535300Y-54774200D01*
X122535300Y-54774200D02*
X123279700Y-54029800D01*
X123279700Y-54029800D02*
X124367200Y-54029800D01*
X124367200Y-54029800D02*
X125114700Y-54777300D01*
X125114700Y-54777300D02*
X125114700Y-55321200D01*
X122569700Y-113713300D02*
X121285000Y-114998000D01*
X122569700Y-113713300D02*
X124375600Y-113713300D01*
X124375600Y-113713300D02*
X124460000Y-113797700D01*
X124460000Y-114998000D02*
X124460000Y-113797700D01*
X124460000Y-125069600D02*
X125730000Y-125069600D01*
X123190000Y-125069600D02*
X124460000Y-125069600D01*
X124460000Y-125069600D02*
X124460000Y-116198300D01*
X124460000Y-114998000D02*
X124460000Y-116198300D01*
X139675000Y-75044300D02*
X139675000Y-76594600D01*
D20*
G04 #@! TO.N,/BA*
X148590000Y-125069600D02*
X148590000Y-121544300D01*
X132080000Y-102298000D02*
X132168400Y-102298000D01*
X132168400Y-102298000D02*
X137822700Y-107952300D01*
X137822700Y-107952300D02*
X137822700Y-113958200D01*
X137822700Y-113958200D02*
X142140800Y-118276300D01*
X142140800Y-118276300D02*
X143306400Y-118276300D01*
X143306400Y-118276300D02*
X146818800Y-121788700D01*
X146818800Y-121788700D02*
X147633200Y-121788700D01*
X147633200Y-121788700D02*
X147877600Y-121544300D01*
X147877600Y-121544300D02*
X148590000Y-121544300D01*
G04 #@! TO.N,/D7*
X162433000Y-98552000D02*
X161332700Y-98552000D01*
X161332700Y-98552000D02*
X161332700Y-99652300D01*
X161332700Y-99652300D02*
X153670000Y-107315000D01*
X153670000Y-107315000D02*
X153670000Y-125069600D01*
X163508300Y-78562200D02*
X163508300Y-97476700D01*
X163508300Y-97476700D02*
X162433000Y-98552000D01*
X162408000Y-78562200D02*
X163508300Y-78562200D01*
G04 #@! TO.N,/D6*
X164973000Y-98552000D02*
X163872700Y-98552000D01*
X163872700Y-98552000D02*
X163872700Y-99652300D01*
X163872700Y-99652300D02*
X156210000Y-107315000D01*
X156210000Y-107315000D02*
X156210000Y-125069600D01*
X166048300Y-78562200D02*
X166048300Y-97476700D01*
X166048300Y-97476700D02*
X164973000Y-98552000D01*
X164948000Y-78562200D02*
X166048300Y-78562200D01*
G04 #@! TO.N,/D5*
X158750000Y-125069600D02*
X158750000Y-107607900D01*
X158750000Y-107607900D02*
X166412700Y-99945200D01*
X166412700Y-99945200D02*
X166412700Y-98552000D01*
X167513000Y-98552000D02*
X166412700Y-98552000D01*
X168588300Y-78562200D02*
X168588300Y-97476700D01*
X168588300Y-97476700D02*
X167513000Y-98552000D01*
X167488000Y-78562200D02*
X168588300Y-78562200D01*
G04 #@! TO.N,/D4*
X170053000Y-98552000D02*
X168952700Y-98552000D01*
X168952700Y-98552000D02*
X168952700Y-99652300D01*
X168952700Y-99652300D02*
X161290000Y-107315000D01*
X161290000Y-107315000D02*
X161290000Y-125069600D01*
G04 #@! TO.N,/D3*
X171467700Y-78562200D02*
X171467700Y-98358000D01*
X171467700Y-98358000D02*
X171661700Y-98552000D01*
X171661700Y-98552000D02*
X171661700Y-103112000D01*
X171661700Y-103112000D02*
X163830000Y-110943700D01*
X163830000Y-110943700D02*
X163830000Y-125069600D01*
X172593000Y-98552000D02*
X171661700Y-98552000D01*
X172568000Y-78562200D02*
X171467700Y-78562200D01*
G04 #@! TO.N,/D2*
X170053000Y-113792000D02*
X168952700Y-113792000D01*
X166370000Y-125069600D02*
X166370000Y-113000300D01*
X166370000Y-113000300D02*
X167029300Y-112341000D01*
X167029300Y-112341000D02*
X168005400Y-112341000D01*
X168005400Y-112341000D02*
X168952700Y-113288300D01*
X168952700Y-113288300D02*
X168952700Y-113792000D01*
G04 #@! TO.N,/D1*
X167488000Y-93802200D02*
X167488000Y-88628700D01*
X167488000Y-88628700D02*
X167558300Y-88558400D01*
X174808000Y-92676700D02*
X173673100Y-92676700D01*
X173673100Y-92676700D02*
X172956000Y-91959600D01*
X168910000Y-125069600D02*
X168910000Y-121544300D01*
X167513000Y-113792000D02*
X167513000Y-120147300D01*
X167513000Y-120147300D02*
X168910000Y-121544300D01*
G04 #@! TO.N,/D0*
X164973000Y-113792000D02*
X164973000Y-112341700D01*
X164973000Y-112341700D02*
X165475400Y-111839300D01*
X165475400Y-111839300D02*
X170022100Y-111839300D01*
X170022100Y-111839300D02*
X171450000Y-113267200D01*
X171450000Y-113267200D02*
X171450000Y-125069600D01*
G04 #@! TO.N,/~GAME*
X138430000Y-121544300D02*
X137026400Y-120140700D01*
X137026400Y-120140700D02*
X137026400Y-107863700D01*
X137026400Y-107863700D02*
X132730700Y-103568000D01*
X132730700Y-103568000D02*
X131397800Y-103568000D01*
X131397800Y-103568000D02*
X130598300Y-102768500D01*
X130598300Y-102768500D02*
X130598300Y-99294400D01*
X130598300Y-99294400D02*
X135712000Y-94180700D01*
X135712000Y-94180700D02*
X135712000Y-90575000D01*
X135712000Y-90575000D02*
X138345100Y-87941900D01*
X138430000Y-125069600D02*
X138430000Y-121544300D01*
G04 #@! TO.N,/R~W*
X130810000Y-125069600D02*
X130810000Y-121544300D01*
X132080000Y-104838000D02*
X132080000Y-105938300D01*
X132080000Y-105938300D02*
X131529800Y-105938300D01*
X131529800Y-105938300D02*
X130629000Y-106839100D01*
X130629000Y-106839100D02*
X130629000Y-121363300D01*
X130629000Y-121363300D02*
X130810000Y-121544300D01*
G04 #@! TO.N,/~IRQ*
X138311300Y-86688300D02*
X135034900Y-89964700D01*
X135034900Y-89964700D02*
X135034900Y-93707900D01*
X135034900Y-93707900D02*
X128270000Y-100472800D01*
X128270000Y-100472800D02*
X128270000Y-125069600D01*
G04 #@! TO.N,/A8*
X147168000Y-78562200D02*
X146067700Y-78562200D01*
X147193000Y-98552000D02*
X146092700Y-98552000D01*
X146092700Y-98552000D02*
X146067700Y-98527000D01*
X146067700Y-98527000D02*
X146067700Y-78562200D01*
G04 #@! TO.N,/A9*
X148620200Y-98552000D02*
X148620200Y-99032800D01*
X148620200Y-99032800D02*
X146030900Y-101622100D01*
X146030900Y-101622100D02*
X146030900Y-119876100D01*
X146030900Y-119876100D02*
X147145700Y-120990900D01*
X148607700Y-78562200D02*
X148607700Y-91546900D01*
X148607700Y-91546900D02*
X148137600Y-92017000D01*
X148137600Y-92017000D02*
X148137600Y-92638400D01*
X148137600Y-92638400D02*
X148607600Y-93108400D01*
X148607600Y-93108400D02*
X148607700Y-93108400D01*
X148607700Y-93108400D02*
X148607700Y-98539500D01*
X148607700Y-98539500D02*
X148620200Y-98552000D01*
X148620200Y-98552000D02*
X148632700Y-98552000D01*
X149708000Y-78562200D02*
X148607700Y-78562200D01*
X149733000Y-98552000D02*
X148632700Y-98552000D01*
G04 #@! TO.N,/A7*
X144653000Y-113792000D02*
X144653000Y-100539700D01*
G04 #@! TO.N,/A11*
X151779200Y-98552000D02*
X151147700Y-97920500D01*
X151147700Y-97920500D02*
X151147700Y-78562200D01*
X152248000Y-78562200D02*
X151147700Y-78562200D01*
X151779200Y-98552000D02*
X148323600Y-102007600D01*
X148323600Y-102007600D02*
X148323600Y-117413000D01*
X148323600Y-117413000D02*
X146781300Y-118955300D01*
X152273000Y-98552000D02*
X151779200Y-98552000D01*
G04 #@! TO.N,/A10*
X156859200Y-98552000D02*
X151172600Y-104238600D01*
X151172600Y-104238600D02*
X151172600Y-116464000D01*
X151172600Y-116464000D02*
X147718000Y-119918600D01*
X156859200Y-98552000D02*
X156227700Y-97920500D01*
X156227700Y-97920500D02*
X156227700Y-78562200D01*
X157328000Y-78562200D02*
X156227700Y-78562200D01*
X157353000Y-98552000D02*
X156859200Y-98552000D01*
G04 #@! TO.N,/~RESET*
X133423000Y-63271500D02*
X130954600Y-65739900D01*
X130954600Y-65739900D02*
X130954600Y-75669300D01*
X130954600Y-75669300D02*
X126806400Y-79817500D01*
X126806400Y-79817500D02*
X126806400Y-121544300D01*
X133423000Y-61671200D02*
X133423000Y-63271500D01*
G04 #@! TO.N,/~ROMH*
X149708000Y-89992200D02*
X149708000Y-91507600D01*
X149708000Y-91507600D02*
X148887900Y-92327700D01*
X154813000Y-98552000D02*
X153712700Y-98552000D01*
X154788000Y-78562200D02*
X153687700Y-78562200D01*
X153348300Y-89992200D02*
X153348300Y-78901600D01*
X153348300Y-78901600D02*
X153687700Y-78562200D01*
X153223200Y-89992200D02*
X153348300Y-89992200D01*
X152248000Y-89992200D02*
X153223200Y-89992200D01*
X153348300Y-89992200D02*
X153348300Y-97087300D01*
X153348300Y-97087300D02*
X153712700Y-97451700D01*
X153712700Y-97451700D02*
X153712700Y-98552000D01*
G04 #@! TO.N,Net-(IC2-Pad3)*
X132080000Y-89662000D02*
X130616400Y-88198400D01*
X130616400Y-88198400D02*
X130616400Y-78072700D01*
X130616400Y-78072700D02*
X132055000Y-76634100D01*
X132055000Y-76634100D02*
X132055000Y-75044300D01*
G04 #@! TO.N,Net-(IC2-Pad6)*
X134595000Y-67424300D02*
X133494700Y-67424300D01*
X132080000Y-82042000D02*
X132080000Y-80941700D01*
X132080000Y-80941700D02*
X132630100Y-80941700D01*
X132630100Y-80941700D02*
X133561700Y-80010100D01*
X133561700Y-80010100D02*
X133561700Y-77747700D01*
X133561700Y-77747700D02*
X133494700Y-77680700D01*
X133494700Y-77680700D02*
X133494700Y-67424300D01*
G04 #@! TO.N,Net-(IC2-Pad11)*
X126975000Y-75044300D02*
X126975000Y-76494600D01*
X125931100Y-76530800D02*
X123982900Y-76530800D01*
X123982900Y-76530800D02*
X123310900Y-75858800D01*
X123310900Y-75858800D02*
X123310900Y-71088400D01*
X123310900Y-71088400D02*
X126975000Y-67424300D01*
X126975000Y-76494600D02*
X125967300Y-76494600D01*
X125967300Y-76494600D02*
X125931100Y-76530800D01*
X125931100Y-76530800D02*
X125931100Y-85100700D01*
X125931100Y-85100700D02*
X125010100Y-86021700D01*
X125010100Y-86021700D02*
X124460000Y-86021700D01*
X158767700Y-89992200D02*
X157328000Y-89992200D01*
X159317900Y-89992200D02*
X158767700Y-89992200D01*
X159868000Y-89992200D02*
X159317900Y-89992200D01*
X159893000Y-98552000D02*
X158792700Y-98552000D01*
X158767700Y-89992200D02*
X158767700Y-98527000D01*
X158767700Y-98527000D02*
X158792700Y-98552000D01*
X124460000Y-87122000D02*
X124460000Y-86021700D01*
G04 #@! TO.N,Net-(IC3-Pad5)*
X124435000Y-75044300D02*
X125535300Y-75044300D01*
X129515000Y-67424300D02*
X128414700Y-67424300D01*
X128414700Y-67424300D02*
X128414700Y-71064600D01*
X128414700Y-71064600D02*
X125535300Y-73944000D01*
X125535300Y-73944000D02*
X125535300Y-75044300D01*
G04 #@! TO.N,Net-(IC4-Pad10)*
X150495000Y-62941200D02*
X150495000Y-64091500D01*
X153187000Y-75107800D02*
X152086700Y-75107800D01*
X152086700Y-75107800D02*
X152086700Y-65683200D01*
X152086700Y-65683200D02*
X150495000Y-64091500D01*
G04 #@! TO.N,Net-(IC4-Pad11)*
X153035000Y-62941200D02*
X153035000Y-64091500D01*
X155727000Y-75107800D02*
X154626700Y-75107800D01*
X154626700Y-75107800D02*
X154626700Y-65683200D01*
X154626700Y-65683200D02*
X153035000Y-64091500D01*
G04 #@! TO.N,Net-(IC4-Pad12)*
X155575000Y-62941200D02*
X155575000Y-64091500D01*
X158267000Y-75107800D02*
X157166700Y-75107800D01*
X157166700Y-75107800D02*
X157166700Y-65683200D01*
X157166700Y-65683200D02*
X155575000Y-64091500D01*
G04 #@! TO.N,Net-(IC4-Pad13)*
X158115000Y-62941200D02*
X158115000Y-64091500D01*
X160807000Y-75107800D02*
X159706700Y-75107800D01*
X159706700Y-75107800D02*
X159706700Y-65683200D01*
X159706700Y-65683200D02*
X158115000Y-64091500D01*
G04 #@! TO.N,Net-(IC2-Pad1)*
X132080000Y-94742000D02*
X132080000Y-93641700D01*
X132080000Y-87122000D02*
X132080000Y-88222300D01*
X132080000Y-88222300D02*
X132630100Y-88222300D01*
X132630100Y-88222300D02*
X133543700Y-89135900D01*
X133543700Y-89135900D02*
X133543700Y-92681700D01*
X133543700Y-92681700D02*
X132583700Y-93641700D01*
X132583700Y-93641700D02*
X132080000Y-93641700D01*
G04 #@! TO.N,Net-(IC2-Pad12)*
X155727000Y-67487800D02*
X155727000Y-65648300D01*
X155727000Y-65648300D02*
X154305000Y-64226300D01*
X154305000Y-64226300D02*
X154305000Y-62566500D01*
X154305000Y-62566500D02*
X153528100Y-61789600D01*
X153528100Y-61789600D02*
X149551000Y-61789600D01*
X149551000Y-61789600D02*
X140987600Y-70353000D01*
X140987600Y-70353000D02*
X140987600Y-81208500D01*
G04 #@! TO.N,Net-(IC4-Pad1)*
X160655000Y-62941200D02*
X160655000Y-64091500D01*
X168427000Y-67487800D02*
X166958100Y-68956700D01*
X166958100Y-68956700D02*
X162891800Y-68956700D01*
X162891800Y-68956700D02*
X162044600Y-68109500D01*
X162044600Y-68109500D02*
X162044600Y-65481100D01*
X162044600Y-65481100D02*
X160655000Y-64091500D01*
G04 #@! TO.N,Net-(IC4-Pad2)*
X163195000Y-62941200D02*
X164345300Y-62941200D01*
X165887000Y-67487800D02*
X166987300Y-67487800D01*
X166987300Y-67487800D02*
X166987300Y-62546700D01*
X166987300Y-62546700D02*
X166226600Y-61786000D01*
X166226600Y-61786000D02*
X165262100Y-61786000D01*
X165262100Y-61786000D02*
X164345300Y-62702800D01*
X164345300Y-62702800D02*
X164345300Y-62941200D01*
G04 #@! TO.N,Net-(IC4-Pad3)*
X163347000Y-67487800D02*
X163347000Y-66037500D01*
X165735000Y-62941200D02*
X165735000Y-64091500D01*
X163347000Y-66037500D02*
X163789000Y-66037500D01*
X163789000Y-66037500D02*
X165735000Y-64091500D01*
G04 #@! TO.N,Net-(IC5-Pad6)*
X159868000Y-78562200D02*
X160968300Y-78562200D01*
X162408000Y-89992200D02*
X161307700Y-89992200D01*
X161307700Y-89992200D02*
X161307700Y-78901600D01*
X161307700Y-78901600D02*
X160968300Y-78562200D01*
G04 #@! TO.N,Net-(SW3-Pad3)*
X142113000Y-98552000D02*
X141012700Y-98552000D01*
X128905000Y-62941200D02*
X130055300Y-62941200D01*
X130055300Y-62941200D02*
X130055300Y-62509800D01*
X130055300Y-62509800D02*
X132531700Y-60033400D01*
X132531700Y-60033400D02*
X134345500Y-60033400D01*
X134345500Y-60033400D02*
X138253700Y-63941600D01*
X138253700Y-63941600D02*
X138253700Y-82977900D01*
X138253700Y-82977900D02*
X139095500Y-83819700D01*
X139095500Y-83819700D02*
X139095500Y-91059600D01*
X139095500Y-91059600D02*
X138426600Y-91728500D01*
X138426600Y-91728500D02*
X138426600Y-94865600D01*
X138426600Y-94865600D02*
X141012700Y-97451700D01*
X141012700Y-97451700D02*
X141012700Y-98552000D01*
G04 #@! TO.N,Net-(IC3-Pad10)*
X144628000Y-78562200D02*
X144628000Y-80012500D01*
X144653000Y-98552000D02*
X143552700Y-98552000D01*
X143552700Y-98552000D02*
X143524700Y-98524000D01*
X143524700Y-98524000D02*
X143524700Y-91179600D01*
X143524700Y-91179600D02*
X145273800Y-89430500D01*
X145273800Y-89430500D02*
X145273800Y-80658300D01*
X145273800Y-80658300D02*
X144628000Y-80012500D01*
G04 #@! TD*
D21*
G04 #@! TO.N,GND*
G36*
X174221720Y-93554131D02*
X174602126Y-93711700D01*
X175013874Y-93711700D01*
X175394280Y-93554131D01*
X175439000Y-93509411D01*
X175439000Y-126492000D01*
X175387000Y-126492000D01*
X175387000Y-125196600D01*
X174117000Y-125196600D01*
X174117000Y-125216600D01*
X173863000Y-125216600D01*
X173863000Y-125196600D01*
X173843000Y-125196600D01*
X173843000Y-124942600D01*
X173863000Y-124942600D01*
X173863000Y-121424880D01*
X174117000Y-121424880D01*
X174117000Y-124942600D01*
X175387000Y-124942600D01*
X175387000Y-122529600D01*
X175232059Y-122004659D01*
X174888026Y-121578970D01*
X174407277Y-121317340D01*
X174333070Y-121302380D01*
X174117000Y-121424880D01*
X173863000Y-121424880D01*
X173646930Y-121302380D01*
X173572723Y-121317340D01*
X173091974Y-121578970D01*
X172747941Y-122004659D01*
X172731580Y-122060089D01*
X172457180Y-121649420D01*
X172235000Y-121500964D01*
X172235000Y-115480991D01*
X172251815Y-115484318D01*
X172466000Y-115361656D01*
X172466000Y-113919000D01*
X172720000Y-113919000D01*
X172720000Y-115361656D01*
X172934185Y-115484318D01*
X173005684Y-115470173D01*
X173482540Y-115211145D01*
X173823972Y-114789349D01*
X173978000Y-114269000D01*
X173978000Y-113919000D01*
X172720000Y-113919000D01*
X172466000Y-113919000D01*
X172446000Y-113919000D01*
X172446000Y-113665000D01*
X172466000Y-113665000D01*
X172466000Y-112222344D01*
X172720000Y-112222344D01*
X172720000Y-113665000D01*
X173978000Y-113665000D01*
X173978000Y-113315000D01*
X173823972Y-112794651D01*
X173482540Y-112372855D01*
X173005684Y-112113827D01*
X172934185Y-112099682D01*
X172720000Y-112222344D01*
X172466000Y-112222344D01*
X172251815Y-112099682D01*
X172180316Y-112113827D01*
X171703460Y-112372855D01*
X171686618Y-112393661D01*
X170631849Y-111338892D01*
X170588053Y-111273347D01*
X170328392Y-111099846D01*
X170099416Y-111054300D01*
X170099412Y-111054300D01*
X170022100Y-111038922D01*
X169944788Y-111054300D01*
X165552712Y-111054300D01*
X165475400Y-111038922D01*
X165398088Y-111054300D01*
X165398084Y-111054300D01*
X165169108Y-111099846D01*
X164974991Y-111229551D01*
X164974989Y-111229553D01*
X164909447Y-111273347D01*
X164865653Y-111338890D01*
X164615000Y-111589543D01*
X164615000Y-111268857D01*
X172162111Y-103721747D01*
X172227653Y-103677953D01*
X172271447Y-103612411D01*
X172271449Y-103612409D01*
X172401153Y-103418293D01*
X172401154Y-103418292D01*
X172446700Y-103189316D01*
X172446700Y-103189312D01*
X172462078Y-103112001D01*
X172446700Y-103034690D01*
X172446700Y-100285032D01*
X172593000Y-100314133D01*
X173133400Y-100206641D01*
X173591529Y-99900529D01*
X173897641Y-99442400D01*
X173978000Y-99038406D01*
X173978000Y-98065593D01*
X173897641Y-97661600D01*
X173591528Y-97203471D01*
X173133399Y-96897359D01*
X172593000Y-96789867D01*
X172252700Y-96857557D01*
X172252700Y-95479694D01*
X172441000Y-95371856D01*
X172441000Y-93929200D01*
X172695000Y-93929200D01*
X172695000Y-95371856D01*
X172909185Y-95494518D01*
X172980684Y-95480373D01*
X173457540Y-95221345D01*
X173798972Y-94799549D01*
X173953000Y-94279200D01*
X173953000Y-93929200D01*
X172695000Y-93929200D01*
X172441000Y-93929200D01*
X172421000Y-93929200D01*
X172421000Y-93675200D01*
X172441000Y-93675200D01*
X172441000Y-93655200D01*
X172695000Y-93655200D01*
X172695000Y-93675200D01*
X173953000Y-93675200D01*
X173953000Y-93461700D01*
X174129289Y-93461700D01*
X174221720Y-93554131D01*
X174221720Y-93554131D01*
G37*
X174221720Y-93554131D02*
X174602126Y-93711700D01*
X175013874Y-93711700D01*
X175394280Y-93554131D01*
X175439000Y-93509411D01*
X175439000Y-126492000D01*
X175387000Y-126492000D01*
X175387000Y-125196600D01*
X174117000Y-125196600D01*
X174117000Y-125216600D01*
X173863000Y-125216600D01*
X173863000Y-125196600D01*
X173843000Y-125196600D01*
X173843000Y-124942600D01*
X173863000Y-124942600D01*
X173863000Y-121424880D01*
X174117000Y-121424880D01*
X174117000Y-124942600D01*
X175387000Y-124942600D01*
X175387000Y-122529600D01*
X175232059Y-122004659D01*
X174888026Y-121578970D01*
X174407277Y-121317340D01*
X174333070Y-121302380D01*
X174117000Y-121424880D01*
X173863000Y-121424880D01*
X173646930Y-121302380D01*
X173572723Y-121317340D01*
X173091974Y-121578970D01*
X172747941Y-122004659D01*
X172731580Y-122060089D01*
X172457180Y-121649420D01*
X172235000Y-121500964D01*
X172235000Y-115480991D01*
X172251815Y-115484318D01*
X172466000Y-115361656D01*
X172466000Y-113919000D01*
X172720000Y-113919000D01*
X172720000Y-115361656D01*
X172934185Y-115484318D01*
X173005684Y-115470173D01*
X173482540Y-115211145D01*
X173823972Y-114789349D01*
X173978000Y-114269000D01*
X173978000Y-113919000D01*
X172720000Y-113919000D01*
X172466000Y-113919000D01*
X172446000Y-113919000D01*
X172446000Y-113665000D01*
X172466000Y-113665000D01*
X172466000Y-112222344D01*
X172720000Y-112222344D01*
X172720000Y-113665000D01*
X173978000Y-113665000D01*
X173978000Y-113315000D01*
X173823972Y-112794651D01*
X173482540Y-112372855D01*
X173005684Y-112113827D01*
X172934185Y-112099682D01*
X172720000Y-112222344D01*
X172466000Y-112222344D01*
X172251815Y-112099682D01*
X172180316Y-112113827D01*
X171703460Y-112372855D01*
X171686618Y-112393661D01*
X170631849Y-111338892D01*
X170588053Y-111273347D01*
X170328392Y-111099846D01*
X170099416Y-111054300D01*
X170099412Y-111054300D01*
X170022100Y-111038922D01*
X169944788Y-111054300D01*
X165552712Y-111054300D01*
X165475400Y-111038922D01*
X165398088Y-111054300D01*
X165398084Y-111054300D01*
X165169108Y-111099846D01*
X164974991Y-111229551D01*
X164974989Y-111229553D01*
X164909447Y-111273347D01*
X164865653Y-111338890D01*
X164615000Y-111589543D01*
X164615000Y-111268857D01*
X172162111Y-103721747D01*
X172227653Y-103677953D01*
X172271447Y-103612411D01*
X172271449Y-103612409D01*
X172401153Y-103418293D01*
X172401154Y-103418292D01*
X172446700Y-103189316D01*
X172446700Y-103189312D01*
X172462078Y-103112001D01*
X172446700Y-103034690D01*
X172446700Y-100285032D01*
X172593000Y-100314133D01*
X173133400Y-100206641D01*
X173591529Y-99900529D01*
X173897641Y-99442400D01*
X173978000Y-99038406D01*
X173978000Y-98065593D01*
X173897641Y-97661600D01*
X173591528Y-97203471D01*
X173133399Y-96897359D01*
X172593000Y-96789867D01*
X172252700Y-96857557D01*
X172252700Y-95479694D01*
X172441000Y-95371856D01*
X172441000Y-93929200D01*
X172695000Y-93929200D01*
X172695000Y-95371856D01*
X172909185Y-95494518D01*
X172980684Y-95480373D01*
X173457540Y-95221345D01*
X173798972Y-94799549D01*
X173953000Y-94279200D01*
X173953000Y-93929200D01*
X172695000Y-93929200D01*
X172441000Y-93929200D01*
X172421000Y-93929200D01*
X172421000Y-93675200D01*
X172441000Y-93675200D01*
X172441000Y-93655200D01*
X172695000Y-93655200D01*
X172695000Y-93675200D01*
X173953000Y-93675200D01*
X173953000Y-93461700D01*
X174129289Y-93461700D01*
X174221720Y-93554131D01*
G36*
X121990908Y-54067014D02*
X121844909Y-53969460D01*
X121426333Y-53886200D01*
X121143667Y-53886200D01*
X120725091Y-53969460D01*
X120250423Y-54286623D01*
X119933260Y-54761291D01*
X119821887Y-55321200D01*
X119933260Y-55881109D01*
X120250423Y-56355777D01*
X120725091Y-56672940D01*
X121143667Y-56756200D01*
X121426333Y-56756200D01*
X121844909Y-56672940D01*
X122319577Y-56355777D01*
X122419521Y-56206200D01*
X122448135Y-56206200D01*
X122535300Y-56223538D01*
X122622464Y-56206200D01*
X122622465Y-56206200D01*
X122682500Y-56194258D01*
X122790423Y-56355777D01*
X123265091Y-56672940D01*
X123683667Y-56756200D01*
X123966333Y-56756200D01*
X124384909Y-56672940D01*
X124859577Y-56355777D01*
X124967500Y-56194258D01*
X125027535Y-56206200D01*
X125027536Y-56206200D01*
X125114700Y-56223538D01*
X125201865Y-56206200D01*
X125230479Y-56206200D01*
X125330423Y-56355777D01*
X125805091Y-56672940D01*
X126223667Y-56756200D01*
X126506333Y-56756200D01*
X126924909Y-56672940D01*
X127399577Y-56355777D01*
X127635000Y-56003442D01*
X127870423Y-56355777D01*
X128345091Y-56672940D01*
X128763667Y-56756200D01*
X129046333Y-56756200D01*
X129464909Y-56672940D01*
X129939577Y-56355777D01*
X130009215Y-56251555D01*
X131335305Y-56251555D01*
X131451428Y-56544200D01*
X133296000Y-56544200D01*
X133296000Y-54940818D01*
X133550000Y-54940818D01*
X133550000Y-56544200D01*
X135394572Y-56544200D01*
X135510695Y-56251555D01*
X143835305Y-56251555D01*
X143951428Y-56544200D01*
X145796000Y-56544200D01*
X145796000Y-54940818D01*
X146050000Y-54940818D01*
X146050000Y-56544200D01*
X147894572Y-56544200D01*
X148010695Y-56251555D01*
X147981221Y-56110589D01*
X147742378Y-55670241D01*
X149103086Y-55670241D01*
X149342611Y-56176334D01*
X149757577Y-56552241D01*
X150145961Y-56713104D01*
X150368000Y-56591115D01*
X150368000Y-55448200D01*
X150622000Y-55448200D01*
X150622000Y-56591115D01*
X150844039Y-56713104D01*
X151232423Y-56552241D01*
X151647389Y-56176334D01*
X151765000Y-55927833D01*
X151882611Y-56176334D01*
X152297577Y-56552241D01*
X152685961Y-56713104D01*
X152908000Y-56591115D01*
X152908000Y-55448200D01*
X153162000Y-55448200D01*
X153162000Y-56591115D01*
X153384039Y-56713104D01*
X153772423Y-56552241D01*
X154187389Y-56176334D01*
X154305000Y-55927833D01*
X154422611Y-56176334D01*
X154837577Y-56552241D01*
X155225961Y-56713104D01*
X155448000Y-56591115D01*
X155448000Y-55448200D01*
X155702000Y-55448200D01*
X155702000Y-56591115D01*
X155924039Y-56713104D01*
X156312423Y-56552241D01*
X156727389Y-56176334D01*
X156845000Y-55927833D01*
X156962611Y-56176334D01*
X157377577Y-56552241D01*
X157765961Y-56713104D01*
X157988000Y-56591115D01*
X157988000Y-55448200D01*
X158242000Y-55448200D01*
X158242000Y-56591115D01*
X158464039Y-56713104D01*
X158852423Y-56552241D01*
X159267389Y-56176334D01*
X159385000Y-55927833D01*
X159502611Y-56176334D01*
X159917577Y-56552241D01*
X160305961Y-56713104D01*
X160528000Y-56591115D01*
X160528000Y-55448200D01*
X160782000Y-55448200D01*
X160782000Y-56591115D01*
X161004039Y-56713104D01*
X161392423Y-56552241D01*
X161807389Y-56176334D01*
X161925000Y-55927833D01*
X162042611Y-56176334D01*
X162457577Y-56552241D01*
X162845961Y-56713104D01*
X163068000Y-56591115D01*
X163068000Y-55448200D01*
X163322000Y-55448200D01*
X163322000Y-56591115D01*
X163544039Y-56713104D01*
X163932423Y-56552241D01*
X164347389Y-56176334D01*
X164465000Y-55927833D01*
X164582611Y-56176334D01*
X164997577Y-56552241D01*
X165385961Y-56713104D01*
X165608000Y-56591115D01*
X165608000Y-55448200D01*
X165862000Y-55448200D01*
X165862000Y-56591115D01*
X166084039Y-56713104D01*
X166472423Y-56552241D01*
X166887389Y-56176334D01*
X167005000Y-55927833D01*
X167122611Y-56176334D01*
X167537577Y-56552241D01*
X167925961Y-56713104D01*
X168148000Y-56591115D01*
X168148000Y-55448200D01*
X168402000Y-55448200D01*
X168402000Y-56591115D01*
X168624039Y-56713104D01*
X169012423Y-56552241D01*
X169427389Y-56176334D01*
X169545000Y-55927833D01*
X169662611Y-56176334D01*
X170077577Y-56552241D01*
X170465961Y-56713104D01*
X170688000Y-56591115D01*
X170688000Y-55448200D01*
X168402000Y-55448200D01*
X168148000Y-55448200D01*
X165862000Y-55448200D01*
X165608000Y-55448200D01*
X163322000Y-55448200D01*
X163068000Y-55448200D01*
X160782000Y-55448200D01*
X160528000Y-55448200D01*
X158242000Y-55448200D01*
X157988000Y-55448200D01*
X155702000Y-55448200D01*
X155448000Y-55448200D01*
X153162000Y-55448200D01*
X152908000Y-55448200D01*
X150622000Y-55448200D01*
X150368000Y-55448200D01*
X149224371Y-55448200D01*
X149103086Y-55670241D01*
X147742378Y-55670241D01*
X147629042Y-55461287D01*
X147055194Y-54996183D01*
X146974219Y-54972159D01*
X149103086Y-54972159D01*
X149224371Y-55194200D01*
X150368000Y-55194200D01*
X150368000Y-54051285D01*
X150622000Y-54051285D01*
X150622000Y-55194200D01*
X152908000Y-55194200D01*
X152908000Y-54051285D01*
X153162000Y-54051285D01*
X153162000Y-55194200D01*
X155448000Y-55194200D01*
X155448000Y-54051285D01*
X155702000Y-54051285D01*
X155702000Y-55194200D01*
X157988000Y-55194200D01*
X157988000Y-54051285D01*
X158242000Y-54051285D01*
X158242000Y-55194200D01*
X160528000Y-55194200D01*
X160528000Y-54051285D01*
X160782000Y-54051285D01*
X160782000Y-55194200D01*
X163068000Y-55194200D01*
X163068000Y-54051285D01*
X163322000Y-54051285D01*
X163322000Y-55194200D01*
X165608000Y-55194200D01*
X165608000Y-54051285D01*
X165862000Y-54051285D01*
X165862000Y-55194200D01*
X168148000Y-55194200D01*
X168148000Y-54051285D01*
X168402000Y-54051285D01*
X168402000Y-55194200D01*
X170688000Y-55194200D01*
X170688000Y-54051285D01*
X170942000Y-54051285D01*
X170942000Y-55194200D01*
X170962000Y-55194200D01*
X170962000Y-55448200D01*
X170942000Y-55448200D01*
X170942000Y-56591115D01*
X171164039Y-56713104D01*
X171552423Y-56552241D01*
X171967389Y-56176334D01*
X172064053Y-55972092D01*
X172320423Y-56355777D01*
X172795091Y-56672940D01*
X173213667Y-56756200D01*
X173496333Y-56756200D01*
X173914909Y-56672940D01*
X174389577Y-56355777D01*
X174706740Y-55881109D01*
X174818113Y-55321200D01*
X174706740Y-54761291D01*
X174389577Y-54286623D01*
X173914909Y-53969460D01*
X173496333Y-53886200D01*
X173213667Y-53886200D01*
X172795091Y-53969460D01*
X172320423Y-54286623D01*
X172064053Y-54670308D01*
X171967389Y-54466066D01*
X171552423Y-54090159D01*
X171164039Y-53929296D01*
X170942000Y-54051285D01*
X170688000Y-54051285D01*
X170465961Y-53929296D01*
X170077577Y-54090159D01*
X169662611Y-54466066D01*
X169545000Y-54714567D01*
X169427389Y-54466066D01*
X169012423Y-54090159D01*
X168624039Y-53929296D01*
X168402000Y-54051285D01*
X168148000Y-54051285D01*
X167925961Y-53929296D01*
X167537577Y-54090159D01*
X167122611Y-54466066D01*
X167005000Y-54714567D01*
X166887389Y-54466066D01*
X166472423Y-54090159D01*
X166084039Y-53929296D01*
X165862000Y-54051285D01*
X165608000Y-54051285D01*
X165385961Y-53929296D01*
X164997577Y-54090159D01*
X164582611Y-54466066D01*
X164465000Y-54714567D01*
X164347389Y-54466066D01*
X163932423Y-54090159D01*
X163544039Y-53929296D01*
X163322000Y-54051285D01*
X163068000Y-54051285D01*
X162845961Y-53929296D01*
X162457577Y-54090159D01*
X162042611Y-54466066D01*
X161925000Y-54714567D01*
X161807389Y-54466066D01*
X161392423Y-54090159D01*
X161004039Y-53929296D01*
X160782000Y-54051285D01*
X160528000Y-54051285D01*
X160305961Y-53929296D01*
X159917577Y-54090159D01*
X159502611Y-54466066D01*
X159385000Y-54714567D01*
X159267389Y-54466066D01*
X158852423Y-54090159D01*
X158464039Y-53929296D01*
X158242000Y-54051285D01*
X157988000Y-54051285D01*
X157765961Y-53929296D01*
X157377577Y-54090159D01*
X156962611Y-54466066D01*
X156845000Y-54714567D01*
X156727389Y-54466066D01*
X156312423Y-54090159D01*
X155924039Y-53929296D01*
X155702000Y-54051285D01*
X155448000Y-54051285D01*
X155225961Y-53929296D01*
X154837577Y-54090159D01*
X154422611Y-54466066D01*
X154305000Y-54714567D01*
X154187389Y-54466066D01*
X153772423Y-54090159D01*
X153384039Y-53929296D01*
X153162000Y-54051285D01*
X152908000Y-54051285D01*
X152685961Y-53929296D01*
X152297577Y-54090159D01*
X151882611Y-54466066D01*
X151765000Y-54714567D01*
X151647389Y-54466066D01*
X151232423Y-54090159D01*
X150844039Y-53929296D01*
X150622000Y-54051285D01*
X150368000Y-54051285D01*
X150145961Y-53929296D01*
X149757577Y-54090159D01*
X149342611Y-54466066D01*
X149103086Y-54972159D01*
X146974219Y-54972159D01*
X146347040Y-54786085D01*
X146050000Y-54940818D01*
X145796000Y-54940818D01*
X145498960Y-54786085D01*
X144790806Y-54996183D01*
X144216958Y-55461287D01*
X143864779Y-56110589D01*
X143835305Y-56251555D01*
X135510695Y-56251555D01*
X135481221Y-56110589D01*
X135129042Y-55461287D01*
X134555194Y-54996183D01*
X133847040Y-54786085D01*
X133550000Y-54940818D01*
X133296000Y-54940818D01*
X132998960Y-54786085D01*
X132290806Y-54996183D01*
X131716958Y-55461287D01*
X131364779Y-56110589D01*
X131335305Y-56251555D01*
X130009215Y-56251555D01*
X130256740Y-55881109D01*
X130368113Y-55321200D01*
X130256740Y-54761291D01*
X129939577Y-54286623D01*
X129464909Y-53969460D01*
X129046333Y-53886200D01*
X128763667Y-53886200D01*
X128345091Y-53969460D01*
X127870423Y-54286623D01*
X127635000Y-54638958D01*
X127399577Y-54286623D01*
X126924909Y-53969460D01*
X126506333Y-53886200D01*
X126223667Y-53886200D01*
X125805091Y-53969460D01*
X125657234Y-54068255D01*
X125194478Y-53605500D01*
X175063069Y-53605500D01*
X175244777Y-53641644D01*
X175339539Y-53704961D01*
X175402856Y-53799723D01*
X175439001Y-53981435D01*
X175439000Y-91843989D01*
X175394280Y-91799269D01*
X175013874Y-91641700D01*
X174602126Y-91641700D01*
X174221720Y-91799269D01*
X174129289Y-91891700D01*
X173998257Y-91891700D01*
X173991000Y-91884443D01*
X173991000Y-91753726D01*
X173833431Y-91373320D01*
X173542280Y-91082169D01*
X173161874Y-90924600D01*
X172750126Y-90924600D01*
X172369720Y-91082169D01*
X172252700Y-91199189D01*
X172252700Y-80261616D01*
X172568000Y-80324333D01*
X173108400Y-80216841D01*
X173566529Y-79910729D01*
X173872641Y-79452600D01*
X173953000Y-79048606D01*
X173953000Y-78075793D01*
X173872641Y-77671800D01*
X173566528Y-77213671D01*
X173108399Y-76907559D01*
X172679270Y-76822200D01*
X173056439Y-76822200D01*
X173583862Y-76603734D01*
X173987534Y-76200062D01*
X174206000Y-75672639D01*
X174206000Y-75101761D01*
X173987534Y-74574338D01*
X173583862Y-74170666D01*
X173518701Y-74143675D01*
X173525005Y-74141064D01*
X173599139Y-73894945D01*
X172771000Y-73066805D01*
X171942861Y-73894945D01*
X172016995Y-74141064D01*
X172023746Y-74143490D01*
X171958138Y-74170666D01*
X171554466Y-74574338D01*
X171336000Y-75101761D01*
X171336000Y-75672639D01*
X171554466Y-76200062D01*
X171958138Y-76603734D01*
X172476207Y-76818326D01*
X172027600Y-76907559D01*
X171569471Y-77213672D01*
X171298000Y-77619957D01*
X171026528Y-77213671D01*
X170568399Y-76907559D01*
X170028000Y-76800067D01*
X169487600Y-76907559D01*
X169029471Y-77213672D01*
X168758000Y-77619957D01*
X168486528Y-77213671D01*
X168028399Y-76907559D01*
X167488000Y-76800067D01*
X166947600Y-76907559D01*
X166489471Y-77213672D01*
X166218000Y-77619957D01*
X165946528Y-77213671D01*
X165488399Y-76907559D01*
X164948000Y-76800067D01*
X164407600Y-76907559D01*
X163949471Y-77213672D01*
X163678000Y-77619957D01*
X163406528Y-77213671D01*
X162948399Y-76907559D01*
X162408000Y-76800067D01*
X161867600Y-76907559D01*
X161409471Y-77213672D01*
X161138000Y-77619957D01*
X160866528Y-77213671D01*
X160408399Y-76907559D01*
X159868000Y-76800067D01*
X159327600Y-76907559D01*
X158869471Y-77213672D01*
X158598000Y-77619957D01*
X158326528Y-77213671D01*
X157868399Y-76907559D01*
X157328000Y-76800067D01*
X156787600Y-76907559D01*
X156329471Y-77213672D01*
X156058000Y-77619957D01*
X155786528Y-77213671D01*
X155328399Y-76907559D01*
X154788000Y-76800067D01*
X154247600Y-76907559D01*
X153789471Y-77213672D01*
X153518000Y-77619957D01*
X153246528Y-77213671D01*
X152788399Y-76907559D01*
X152248000Y-76800067D01*
X151707600Y-76907559D01*
X151249471Y-77213672D01*
X150978000Y-77619957D01*
X150706528Y-77213671D01*
X150248399Y-76907559D01*
X149708000Y-76800067D01*
X149167600Y-76907559D01*
X148709471Y-77213672D01*
X148438000Y-77619957D01*
X148166528Y-77213671D01*
X147708399Y-76907559D01*
X147168000Y-76800067D01*
X146627600Y-76907559D01*
X146169471Y-77213672D01*
X145898000Y-77619957D01*
X145626528Y-77213671D01*
X145168399Y-76907559D01*
X144628000Y-76800067D01*
X144087600Y-76907559D01*
X143629471Y-77213672D01*
X143358000Y-77619957D01*
X143086528Y-77213671D01*
X142628399Y-76907559D01*
X142088000Y-76800067D01*
X141772600Y-76862804D01*
X141772600Y-75089061D01*
X142532000Y-75089061D01*
X142532000Y-75659939D01*
X142750466Y-76187362D01*
X143154138Y-76591034D01*
X143681561Y-76809500D01*
X144252439Y-76809500D01*
X144779862Y-76591034D01*
X145183534Y-76187362D01*
X145402000Y-75659939D01*
X145402000Y-75089061D01*
X145183534Y-74561638D01*
X144779862Y-74157966D01*
X144714701Y-74130975D01*
X144721005Y-74128364D01*
X144795139Y-73882245D01*
X143967000Y-73054105D01*
X143138861Y-73882245D01*
X143212995Y-74128364D01*
X143219746Y-74130790D01*
X143154138Y-74157966D01*
X142750466Y-74561638D01*
X142532000Y-75089061D01*
X141772600Y-75089061D01*
X141772600Y-72657723D01*
X142520035Y-72657723D01*
X142547222Y-73227954D01*
X142713136Y-73628505D01*
X142959255Y-73702639D01*
X143787395Y-72874500D01*
X144146605Y-72874500D01*
X144974745Y-73702639D01*
X145220864Y-73628505D01*
X145413965Y-73091277D01*
X145386778Y-72521046D01*
X145220864Y-72120495D01*
X144974745Y-72046361D01*
X144146605Y-72874500D01*
X143787395Y-72874500D01*
X142959255Y-72046361D01*
X142713136Y-72120495D01*
X142520035Y-72657723D01*
X141772600Y-72657723D01*
X141772600Y-71866755D01*
X143138861Y-71866755D01*
X143967000Y-72694895D01*
X144795139Y-71866755D01*
X144721005Y-71620636D01*
X144183777Y-71427535D01*
X143613546Y-71454722D01*
X143212995Y-71620636D01*
X143138861Y-71866755D01*
X141772600Y-71866755D01*
X141772600Y-70678157D01*
X144835957Y-67614800D01*
X149262000Y-67614800D01*
X149262000Y-67964800D01*
X149416028Y-68485149D01*
X149757460Y-68906945D01*
X150234316Y-69165973D01*
X150305815Y-69180118D01*
X150520000Y-69057456D01*
X150520000Y-67614800D01*
X149262000Y-67614800D01*
X144835957Y-67614800D01*
X145439957Y-67010800D01*
X149262000Y-67010800D01*
X149262000Y-67360800D01*
X150520000Y-67360800D01*
X150520000Y-65918144D01*
X150305815Y-65795482D01*
X150234316Y-65809627D01*
X149757460Y-66068655D01*
X149416028Y-66490451D01*
X149262000Y-67010800D01*
X145439957Y-67010800D01*
X149047560Y-63403198D01*
X149047560Y-63741200D01*
X149096843Y-63988965D01*
X149237191Y-64199009D01*
X149447235Y-64339357D01*
X149695000Y-64388640D01*
X149753726Y-64388640D01*
X149755546Y-64397791D01*
X149885251Y-64591908D01*
X149885254Y-64591911D01*
X149929048Y-64657453D01*
X149994590Y-64701247D01*
X151154443Y-65861100D01*
X151059684Y-65809627D01*
X150988185Y-65795482D01*
X150774000Y-65918144D01*
X150774000Y-67360800D01*
X150794000Y-67360800D01*
X150794000Y-67614800D01*
X150774000Y-67614800D01*
X150774000Y-69057456D01*
X150988185Y-69180118D01*
X151059684Y-69165973D01*
X151301701Y-69034510D01*
X151301700Y-73529532D01*
X151187400Y-73453159D01*
X150647000Y-73345667D01*
X150106601Y-73453159D01*
X149648472Y-73759271D01*
X149342359Y-74217400D01*
X149262000Y-74621393D01*
X149262000Y-75594206D01*
X149342359Y-75998199D01*
X149648471Y-76456328D01*
X150106600Y-76762441D01*
X150647000Y-76869933D01*
X151187399Y-76762441D01*
X151645528Y-76456329D01*
X151917000Y-76050043D01*
X152188471Y-76456328D01*
X152646600Y-76762441D01*
X153187000Y-76869933D01*
X153727399Y-76762441D01*
X154185528Y-76456329D01*
X154457000Y-76050043D01*
X154728471Y-76456328D01*
X155186600Y-76762441D01*
X155727000Y-76869933D01*
X156267399Y-76762441D01*
X156725528Y-76456329D01*
X156997000Y-76050043D01*
X157268471Y-76456328D01*
X157726600Y-76762441D01*
X158267000Y-76869933D01*
X158807399Y-76762441D01*
X159265528Y-76456329D01*
X159537000Y-76050043D01*
X159808471Y-76456328D01*
X160266600Y-76762441D01*
X160807000Y-76869933D01*
X161347399Y-76762441D01*
X161805528Y-76456329D01*
X162077000Y-76050043D01*
X162348471Y-76456328D01*
X162806600Y-76762441D01*
X163347000Y-76869933D01*
X163887399Y-76762441D01*
X164345528Y-76456329D01*
X164617000Y-76050043D01*
X164888471Y-76456328D01*
X165346600Y-76762441D01*
X165887000Y-76869933D01*
X166427399Y-76762441D01*
X166885528Y-76456329D01*
X167157000Y-76050043D01*
X167428471Y-76456328D01*
X167886600Y-76762441D01*
X168427000Y-76869933D01*
X168967399Y-76762441D01*
X169425528Y-76456329D01*
X169731641Y-75998200D01*
X169812000Y-75594207D01*
X169812000Y-74621394D01*
X169731641Y-74217400D01*
X169425529Y-73759271D01*
X168967400Y-73453159D01*
X168427000Y-73345667D01*
X167886601Y-73453159D01*
X167428472Y-73759271D01*
X167157000Y-74165556D01*
X166885529Y-73759271D01*
X166427400Y-73453159D01*
X165887000Y-73345667D01*
X165346601Y-73453159D01*
X164888472Y-73759271D01*
X164617000Y-74165556D01*
X164345529Y-73759271D01*
X163887400Y-73453159D01*
X163347000Y-73345667D01*
X162806601Y-73453159D01*
X162348472Y-73759271D01*
X162077000Y-74165556D01*
X161805529Y-73759271D01*
X161347400Y-73453159D01*
X160807000Y-73345667D01*
X160491700Y-73408384D01*
X160491700Y-72670423D01*
X171324035Y-72670423D01*
X171351222Y-73240654D01*
X171517136Y-73641205D01*
X171763255Y-73715339D01*
X172591395Y-72887200D01*
X172950605Y-72887200D01*
X173778745Y-73715339D01*
X174024864Y-73641205D01*
X174217965Y-73103977D01*
X174190778Y-72533746D01*
X174024864Y-72133195D01*
X173778745Y-72059061D01*
X172950605Y-72887200D01*
X172591395Y-72887200D01*
X171763255Y-72059061D01*
X171517136Y-72133195D01*
X171324035Y-72670423D01*
X160491700Y-72670423D01*
X160491700Y-71879455D01*
X171942861Y-71879455D01*
X172771000Y-72707595D01*
X173599139Y-71879455D01*
X173525005Y-71633336D01*
X172987777Y-71440235D01*
X172417546Y-71467422D01*
X172016995Y-71633336D01*
X171942861Y-71879455D01*
X160491700Y-71879455D01*
X160491700Y-69187216D01*
X160807000Y-69249933D01*
X161347399Y-69142441D01*
X161719053Y-68894110D01*
X162282051Y-69457108D01*
X162325847Y-69522653D01*
X162585508Y-69696154D01*
X162814484Y-69741700D01*
X162814488Y-69741700D01*
X162891800Y-69757078D01*
X162969112Y-69741700D01*
X166880788Y-69741700D01*
X166958100Y-69757078D01*
X167035412Y-69741700D01*
X167035416Y-69741700D01*
X167264392Y-69696154D01*
X167524053Y-69522653D01*
X167567849Y-69457108D01*
X167884152Y-69140805D01*
X167886600Y-69142441D01*
X168427000Y-69249933D01*
X168967399Y-69142441D01*
X169425528Y-68836329D01*
X169731641Y-68378200D01*
X169812000Y-67974207D01*
X169812000Y-67001394D01*
X169731641Y-66597400D01*
X169425529Y-66139271D01*
X168967400Y-65833159D01*
X168427000Y-65725667D01*
X167886601Y-65833159D01*
X167772300Y-65909532D01*
X167772300Y-64304320D01*
X168133667Y-64376200D01*
X168416333Y-64376200D01*
X168834909Y-64292940D01*
X169309577Y-63975777D01*
X169545000Y-63623442D01*
X169780423Y-63975777D01*
X170255091Y-64292940D01*
X170673667Y-64376200D01*
X170956333Y-64376200D01*
X171374909Y-64292940D01*
X171849577Y-63975777D01*
X172085000Y-63623442D01*
X172320423Y-63975777D01*
X172795091Y-64292940D01*
X173213667Y-64376200D01*
X173496333Y-64376200D01*
X173914909Y-64292940D01*
X174389577Y-63975777D01*
X174706740Y-63501109D01*
X174818113Y-62941200D01*
X174706740Y-62381291D01*
X174389577Y-61906623D01*
X173914909Y-61589460D01*
X173496333Y-61506200D01*
X173213667Y-61506200D01*
X172795091Y-61589460D01*
X172320423Y-61906623D01*
X172085000Y-62258958D01*
X171849577Y-61906623D01*
X171374909Y-61589460D01*
X170956333Y-61506200D01*
X170673667Y-61506200D01*
X170255091Y-61589460D01*
X169780423Y-61906623D01*
X169545000Y-62258958D01*
X169309577Y-61906623D01*
X168834909Y-61589460D01*
X168416333Y-61506200D01*
X168133667Y-61506200D01*
X167715091Y-61589460D01*
X167370480Y-61819722D01*
X166836349Y-61285592D01*
X166792553Y-61220047D01*
X166532892Y-61046546D01*
X166303916Y-61001000D01*
X166303912Y-61001000D01*
X166226600Y-60985622D01*
X166149288Y-61001000D01*
X165339412Y-61001000D01*
X165262100Y-60985622D01*
X165184788Y-61001000D01*
X165184784Y-61001000D01*
X164955808Y-61046546D01*
X164761691Y-61176251D01*
X164761689Y-61176253D01*
X164696147Y-61220047D01*
X164652353Y-61285589D01*
X164110730Y-61827212D01*
X163754909Y-61589460D01*
X163336333Y-61506200D01*
X163053667Y-61506200D01*
X162635091Y-61589460D01*
X162160423Y-61906623D01*
X161925000Y-62258958D01*
X161689577Y-61906623D01*
X161214909Y-61589460D01*
X160796333Y-61506200D01*
X160513667Y-61506200D01*
X160095091Y-61589460D01*
X159620423Y-61906623D01*
X159385000Y-62258958D01*
X159149577Y-61906623D01*
X158674909Y-61589460D01*
X158256333Y-61506200D01*
X157973667Y-61506200D01*
X157555091Y-61589460D01*
X157080423Y-61906623D01*
X156845000Y-62258958D01*
X156609577Y-61906623D01*
X156134909Y-61589460D01*
X155716333Y-61506200D01*
X155433667Y-61506200D01*
X155015091Y-61589460D01*
X154669220Y-61820563D01*
X154137849Y-61289192D01*
X154094053Y-61223647D01*
X153834392Y-61050146D01*
X153605416Y-61004600D01*
X153605412Y-61004600D01*
X153528100Y-60989222D01*
X153450788Y-61004600D01*
X149628310Y-61004600D01*
X149550999Y-60989222D01*
X149473688Y-61004600D01*
X149473684Y-61004600D01*
X149244708Y-61050146D01*
X149244706Y-61050147D01*
X149244707Y-61050147D01*
X149050591Y-61179851D01*
X149050589Y-61179853D01*
X148985047Y-61223647D01*
X148941253Y-61289189D01*
X147979639Y-62250803D01*
X148094929Y-61671200D01*
X147948631Y-60935710D01*
X147532009Y-60312191D01*
X146908490Y-59895569D01*
X146358655Y-59786200D01*
X145487345Y-59786200D01*
X144937510Y-59895569D01*
X144313991Y-60312191D01*
X143897369Y-60935710D01*
X143751071Y-61671200D01*
X143897369Y-62406690D01*
X144313991Y-63030209D01*
X144937510Y-63446831D01*
X145487345Y-63556200D01*
X146358655Y-63556200D01*
X146752604Y-63477839D01*
X140487192Y-69743251D01*
X140421647Y-69787047D01*
X140248146Y-70046709D01*
X140202600Y-70275685D01*
X140202600Y-70275688D01*
X140187222Y-70353000D01*
X140202600Y-70430312D01*
X140202600Y-73387113D01*
X139675000Y-73282167D01*
X139134601Y-73389659D01*
X139038700Y-73453738D01*
X139038700Y-69014862D01*
X139134600Y-69078941D01*
X139675000Y-69186433D01*
X140215399Y-69078941D01*
X140673528Y-68772829D01*
X140979641Y-68314700D01*
X141060000Y-67910707D01*
X141060000Y-66937894D01*
X140979641Y-66533900D01*
X140673529Y-66075771D01*
X140215400Y-65769659D01*
X139675000Y-65662167D01*
X139134601Y-65769659D01*
X139038700Y-65833738D01*
X139038700Y-64018910D01*
X139054078Y-63941599D01*
X139038700Y-63864288D01*
X139038700Y-63864284D01*
X138993154Y-63635308D01*
X138903485Y-63501109D01*
X138863449Y-63441191D01*
X138863447Y-63441189D01*
X138819653Y-63375647D01*
X138754111Y-63331853D01*
X134955249Y-59532992D01*
X134911453Y-59467447D01*
X134651792Y-59293946D01*
X134422816Y-59248400D01*
X134422812Y-59248400D01*
X134345500Y-59233022D01*
X134268188Y-59248400D01*
X132609010Y-59248400D01*
X132531699Y-59233022D01*
X132454388Y-59248400D01*
X132454384Y-59248400D01*
X132225408Y-59293946D01*
X132225406Y-59293947D01*
X132225407Y-59293947D01*
X132031291Y-59423651D01*
X132031289Y-59423653D01*
X131965747Y-59467447D01*
X131921953Y-59532989D01*
X129705036Y-61749907D01*
X129464909Y-61589460D01*
X129046333Y-61506200D01*
X128763667Y-61506200D01*
X128345091Y-61589460D01*
X127870423Y-61906623D01*
X127635000Y-62258958D01*
X127399577Y-61906623D01*
X126924909Y-61589460D01*
X126506333Y-61506200D01*
X126223667Y-61506200D01*
X125805091Y-61589460D01*
X125330423Y-61906623D01*
X125095000Y-62258958D01*
X124859577Y-61906623D01*
X124384909Y-61589460D01*
X123966333Y-61506200D01*
X123683667Y-61506200D01*
X123265091Y-61589460D01*
X122790423Y-61906623D01*
X122709785Y-62027306D01*
X122683157Y-61893435D01*
X122542809Y-61683391D01*
X122332765Y-61543043D01*
X122085000Y-61493760D01*
X120485000Y-61493760D01*
X120237235Y-61543043D01*
X120027191Y-61683391D01*
X119886843Y-61893435D01*
X119837560Y-62141200D01*
X119837560Y-63741200D01*
X119886843Y-63988965D01*
X120027191Y-64199009D01*
X120237235Y-64339357D01*
X120485000Y-64388640D01*
X122085000Y-64388640D01*
X122332765Y-64339357D01*
X122542809Y-64199009D01*
X122683157Y-63988965D01*
X122709785Y-63855094D01*
X122790423Y-63975777D01*
X123265091Y-64292940D01*
X123683667Y-64376200D01*
X123966333Y-64376200D01*
X124384909Y-64292940D01*
X124859577Y-63975777D01*
X125095000Y-63623442D01*
X125330423Y-63975777D01*
X125805091Y-64292940D01*
X126223667Y-64376200D01*
X126506333Y-64376200D01*
X126924909Y-64292940D01*
X127399577Y-63975777D01*
X127635000Y-63623442D01*
X127870423Y-63975777D01*
X128345091Y-64292940D01*
X128763667Y-64376200D01*
X129046333Y-64376200D01*
X129464909Y-64292940D01*
X129939577Y-63975777D01*
X130102311Y-63732228D01*
X130132616Y-63726200D01*
X130361592Y-63680654D01*
X130621253Y-63507153D01*
X130794754Y-63247492D01*
X130808925Y-63176249D01*
X130840300Y-63018516D01*
X130840300Y-63018515D01*
X130855679Y-62941200D01*
X130840300Y-62863884D01*
X130840300Y-62834957D01*
X131375999Y-62299258D01*
X131397369Y-62406690D01*
X131813991Y-63030209D01*
X132257674Y-63326669D01*
X130454192Y-65130151D01*
X130388647Y-65173947D01*
X130344851Y-65239492D01*
X130276352Y-65342008D01*
X130215146Y-65433609D01*
X130169600Y-65662585D01*
X130169600Y-65662588D01*
X130154222Y-65739900D01*
X130169600Y-65817212D01*
X130169600Y-65845965D01*
X130055400Y-65769659D01*
X129515000Y-65662167D01*
X128974601Y-65769659D01*
X128516472Y-66075771D01*
X128245000Y-66482056D01*
X127973529Y-66075771D01*
X127515400Y-65769659D01*
X126975000Y-65662167D01*
X126434601Y-65769659D01*
X125976472Y-66075771D01*
X125689258Y-66505616D01*
X125665972Y-66426951D01*
X125324540Y-66005155D01*
X124847684Y-65746127D01*
X124776185Y-65731982D01*
X124562000Y-65854644D01*
X124562000Y-67297300D01*
X124582000Y-67297300D01*
X124582000Y-67551300D01*
X124562000Y-67551300D01*
X124562000Y-67571300D01*
X124308000Y-67571300D01*
X124308000Y-67551300D01*
X123050000Y-67551300D01*
X123050000Y-67901300D01*
X123204028Y-68421649D01*
X123545460Y-68843445D01*
X124022316Y-69102473D01*
X124093815Y-69116618D01*
X124278014Y-69011129D01*
X122810490Y-70478653D01*
X122744948Y-70522447D01*
X122701154Y-70587989D01*
X122701151Y-70587992D01*
X122571446Y-70782109D01*
X122510522Y-71088400D01*
X122525901Y-71165717D01*
X122525900Y-75781488D01*
X122510522Y-75858800D01*
X122525900Y-75936112D01*
X122525900Y-75936115D01*
X122571446Y-76165091D01*
X122744947Y-76424753D01*
X122810492Y-76468549D01*
X123373151Y-77031208D01*
X123416947Y-77096753D01*
X123676608Y-77270254D01*
X123905584Y-77315800D01*
X123905588Y-77315800D01*
X123982900Y-77331178D01*
X124060212Y-77315800D01*
X125146100Y-77315800D01*
X125146100Y-78156721D01*
X124946407Y-78117000D01*
X123973593Y-78117000D01*
X123569600Y-78197359D01*
X123111471Y-78503471D01*
X122805359Y-78961600D01*
X122697867Y-79502000D01*
X122805359Y-80042400D01*
X123111471Y-80500529D01*
X123517756Y-80772000D01*
X123111471Y-81043471D01*
X122805359Y-81501600D01*
X122697867Y-82042000D01*
X122805359Y-82582400D01*
X123111471Y-83040529D01*
X123517756Y-83312000D01*
X123111471Y-83583471D01*
X122805359Y-84041600D01*
X122697867Y-84582000D01*
X122782573Y-85007848D01*
X122345547Y-85444875D01*
X122271651Y-85494251D01*
X122076048Y-85786991D01*
X122024700Y-86045136D01*
X122024700Y-86045139D01*
X122007363Y-86132300D01*
X122024700Y-86219461D01*
X122024701Y-90982994D01*
X121501777Y-90795035D01*
X120931546Y-90822222D01*
X120530995Y-90988136D01*
X120456861Y-91234255D01*
X121285000Y-92062395D01*
X121299143Y-92048253D01*
X121478748Y-92227858D01*
X121464605Y-92242000D01*
X121478748Y-92256142D01*
X121299142Y-92435748D01*
X121285000Y-92421605D01*
X120456861Y-93249745D01*
X120530995Y-93495864D01*
X120537746Y-93498290D01*
X120472138Y-93525466D01*
X120068466Y-93929138D01*
X119850000Y-94456561D01*
X119850000Y-95027439D01*
X120068466Y-95554862D01*
X120472138Y-95958534D01*
X120999561Y-96177000D01*
X121449095Y-96177000D01*
X121459351Y-96192349D01*
X121533207Y-96241698D01*
X121684700Y-96393223D01*
X121684701Y-111116785D01*
X121501777Y-111051035D01*
X120931546Y-111078222D01*
X120530995Y-111244136D01*
X120456861Y-111490255D01*
X121285000Y-112318395D01*
X121299143Y-112304253D01*
X121478748Y-112483858D01*
X121464605Y-112498000D01*
X121478748Y-112512143D01*
X121299143Y-112691748D01*
X121285000Y-112677605D01*
X120456861Y-113505745D01*
X120530995Y-113751864D01*
X120537746Y-113754290D01*
X120472138Y-113781466D01*
X120068466Y-114185138D01*
X119850000Y-114712561D01*
X119850000Y-115283439D01*
X120068466Y-115810862D01*
X120472138Y-116214534D01*
X120999561Y-116433000D01*
X121570439Y-116433000D01*
X122097862Y-116214534D01*
X122501534Y-115810862D01*
X122720000Y-115283439D01*
X122720000Y-115109270D01*
X122805359Y-115538400D01*
X123111471Y-115996529D01*
X123569600Y-116302641D01*
X123575001Y-116303715D01*
X123575000Y-121308814D01*
X123190000Y-121232232D01*
X122644919Y-121340656D01*
X122182821Y-121649420D01*
X121908420Y-122060090D01*
X121892059Y-122004659D01*
X121548026Y-121578970D01*
X121067277Y-121317340D01*
X120993070Y-121302380D01*
X120777000Y-121424880D01*
X120777000Y-124942600D01*
X120797000Y-124942600D01*
X120797000Y-125196600D01*
X120777000Y-125196600D01*
X120777000Y-125216600D01*
X120523000Y-125216600D01*
X120523000Y-125196600D01*
X119253000Y-125196600D01*
X119253000Y-126492000D01*
X119201000Y-126492000D01*
X119201000Y-122529600D01*
X119253000Y-122529600D01*
X119253000Y-124942600D01*
X120523000Y-124942600D01*
X120523000Y-121424880D01*
X120306930Y-121302380D01*
X120232723Y-121317340D01*
X119751974Y-121578970D01*
X119407941Y-122004659D01*
X119253000Y-122529600D01*
X119201000Y-122529600D01*
X119201000Y-112281223D01*
X119838035Y-112281223D01*
X119865222Y-112851454D01*
X120031136Y-113252005D01*
X120277255Y-113326139D01*
X121105395Y-112498000D01*
X120277255Y-111669861D01*
X120031136Y-111743995D01*
X119838035Y-112281223D01*
X119201000Y-112281223D01*
X119201000Y-92025223D01*
X119838035Y-92025223D01*
X119865222Y-92595454D01*
X120031136Y-92996005D01*
X120277255Y-93070139D01*
X121105395Y-92242000D01*
X120277255Y-91413861D01*
X120031136Y-91487995D01*
X119838035Y-92025223D01*
X119201000Y-92025223D01*
X119201000Y-66947300D01*
X123050000Y-66947300D01*
X123050000Y-67297300D01*
X124308000Y-67297300D01*
X124308000Y-65854644D01*
X124093815Y-65731982D01*
X124022316Y-65746127D01*
X123545460Y-66005155D01*
X123204028Y-66426951D01*
X123050000Y-66947300D01*
X119201000Y-66947300D01*
X119201000Y-57090845D01*
X131335305Y-57090845D01*
X131364779Y-57231811D01*
X131716958Y-57881113D01*
X132290806Y-58346217D01*
X132998960Y-58556315D01*
X133296000Y-58401582D01*
X133296000Y-56798200D01*
X133550000Y-56798200D01*
X133550000Y-58401582D01*
X133847040Y-58556315D01*
X134555194Y-58346217D01*
X135129042Y-57881113D01*
X135481221Y-57231811D01*
X135510695Y-57090845D01*
X143835305Y-57090845D01*
X143864779Y-57231811D01*
X144216958Y-57881113D01*
X144790806Y-58346217D01*
X145498960Y-58556315D01*
X145796000Y-58401582D01*
X145796000Y-56798200D01*
X146050000Y-56798200D01*
X146050000Y-58401582D01*
X146347040Y-58556315D01*
X147055194Y-58346217D01*
X147629042Y-57881113D01*
X147981221Y-57231811D01*
X148010695Y-57090845D01*
X147894572Y-56798200D01*
X146050000Y-56798200D01*
X145796000Y-56798200D01*
X143951428Y-56798200D01*
X143835305Y-57090845D01*
X135510695Y-57090845D01*
X135394572Y-56798200D01*
X133550000Y-56798200D01*
X133296000Y-56798200D01*
X131451428Y-56798200D01*
X131335305Y-57090845D01*
X119201000Y-57090845D01*
X119201000Y-53981431D01*
X119237144Y-53799723D01*
X119300461Y-53704961D01*
X119395223Y-53641644D01*
X119576930Y-53605500D01*
X122452421Y-53605500D01*
X121990908Y-54067014D01*
X121990908Y-54067014D01*
G37*
X121990908Y-54067014D02*
X121844909Y-53969460D01*
X121426333Y-53886200D01*
X121143667Y-53886200D01*
X120725091Y-53969460D01*
X120250423Y-54286623D01*
X119933260Y-54761291D01*
X119821887Y-55321200D01*
X119933260Y-55881109D01*
X120250423Y-56355777D01*
X120725091Y-56672940D01*
X121143667Y-56756200D01*
X121426333Y-56756200D01*
X121844909Y-56672940D01*
X122319577Y-56355777D01*
X122419521Y-56206200D01*
X122448135Y-56206200D01*
X122535300Y-56223538D01*
X122622464Y-56206200D01*
X122622465Y-56206200D01*
X122682500Y-56194258D01*
X122790423Y-56355777D01*
X123265091Y-56672940D01*
X123683667Y-56756200D01*
X123966333Y-56756200D01*
X124384909Y-56672940D01*
X124859577Y-56355777D01*
X124967500Y-56194258D01*
X125027535Y-56206200D01*
X125027536Y-56206200D01*
X125114700Y-56223538D01*
X125201865Y-56206200D01*
X125230479Y-56206200D01*
X125330423Y-56355777D01*
X125805091Y-56672940D01*
X126223667Y-56756200D01*
X126506333Y-56756200D01*
X126924909Y-56672940D01*
X127399577Y-56355777D01*
X127635000Y-56003442D01*
X127870423Y-56355777D01*
X128345091Y-56672940D01*
X128763667Y-56756200D01*
X129046333Y-56756200D01*
X129464909Y-56672940D01*
X129939577Y-56355777D01*
X130009215Y-56251555D01*
X131335305Y-56251555D01*
X131451428Y-56544200D01*
X133296000Y-56544200D01*
X133296000Y-54940818D01*
X133550000Y-54940818D01*
X133550000Y-56544200D01*
X135394572Y-56544200D01*
X135510695Y-56251555D01*
X143835305Y-56251555D01*
X143951428Y-56544200D01*
X145796000Y-56544200D01*
X145796000Y-54940818D01*
X146050000Y-54940818D01*
X146050000Y-56544200D01*
X147894572Y-56544200D01*
X148010695Y-56251555D01*
X147981221Y-56110589D01*
X147742378Y-55670241D01*
X149103086Y-55670241D01*
X149342611Y-56176334D01*
X149757577Y-56552241D01*
X150145961Y-56713104D01*
X150368000Y-56591115D01*
X150368000Y-55448200D01*
X150622000Y-55448200D01*
X150622000Y-56591115D01*
X150844039Y-56713104D01*
X151232423Y-56552241D01*
X151647389Y-56176334D01*
X151765000Y-55927833D01*
X151882611Y-56176334D01*
X152297577Y-56552241D01*
X152685961Y-56713104D01*
X152908000Y-56591115D01*
X152908000Y-55448200D01*
X153162000Y-55448200D01*
X153162000Y-56591115D01*
X153384039Y-56713104D01*
X153772423Y-56552241D01*
X154187389Y-56176334D01*
X154305000Y-55927833D01*
X154422611Y-56176334D01*
X154837577Y-56552241D01*
X155225961Y-56713104D01*
X155448000Y-56591115D01*
X155448000Y-55448200D01*
X155702000Y-55448200D01*
X155702000Y-56591115D01*
X155924039Y-56713104D01*
X156312423Y-56552241D01*
X156727389Y-56176334D01*
X156845000Y-55927833D01*
X156962611Y-56176334D01*
X157377577Y-56552241D01*
X157765961Y-56713104D01*
X157988000Y-56591115D01*
X157988000Y-55448200D01*
X158242000Y-55448200D01*
X158242000Y-56591115D01*
X158464039Y-56713104D01*
X158852423Y-56552241D01*
X159267389Y-56176334D01*
X159385000Y-55927833D01*
X159502611Y-56176334D01*
X159917577Y-56552241D01*
X160305961Y-56713104D01*
X160528000Y-56591115D01*
X160528000Y-55448200D01*
X160782000Y-55448200D01*
X160782000Y-56591115D01*
X161004039Y-56713104D01*
X161392423Y-56552241D01*
X161807389Y-56176334D01*
X161925000Y-55927833D01*
X162042611Y-56176334D01*
X162457577Y-56552241D01*
X162845961Y-56713104D01*
X163068000Y-56591115D01*
X163068000Y-55448200D01*
X163322000Y-55448200D01*
X163322000Y-56591115D01*
X163544039Y-56713104D01*
X163932423Y-56552241D01*
X164347389Y-56176334D01*
X164465000Y-55927833D01*
X164582611Y-56176334D01*
X164997577Y-56552241D01*
X165385961Y-56713104D01*
X165608000Y-56591115D01*
X165608000Y-55448200D01*
X165862000Y-55448200D01*
X165862000Y-56591115D01*
X166084039Y-56713104D01*
X166472423Y-56552241D01*
X166887389Y-56176334D01*
X167005000Y-55927833D01*
X167122611Y-56176334D01*
X167537577Y-56552241D01*
X167925961Y-56713104D01*
X168148000Y-56591115D01*
X168148000Y-55448200D01*
X168402000Y-55448200D01*
X168402000Y-56591115D01*
X168624039Y-56713104D01*
X169012423Y-56552241D01*
X169427389Y-56176334D01*
X169545000Y-55927833D01*
X169662611Y-56176334D01*
X170077577Y-56552241D01*
X170465961Y-56713104D01*
X170688000Y-56591115D01*
X170688000Y-55448200D01*
X168402000Y-55448200D01*
X168148000Y-55448200D01*
X165862000Y-55448200D01*
X165608000Y-55448200D01*
X163322000Y-55448200D01*
X163068000Y-55448200D01*
X160782000Y-55448200D01*
X160528000Y-55448200D01*
X158242000Y-55448200D01*
X157988000Y-55448200D01*
X155702000Y-55448200D01*
X155448000Y-55448200D01*
X153162000Y-55448200D01*
X152908000Y-55448200D01*
X150622000Y-55448200D01*
X150368000Y-55448200D01*
X149224371Y-55448200D01*
X149103086Y-55670241D01*
X147742378Y-55670241D01*
X147629042Y-55461287D01*
X147055194Y-54996183D01*
X146974219Y-54972159D01*
X149103086Y-54972159D01*
X149224371Y-55194200D01*
X150368000Y-55194200D01*
X150368000Y-54051285D01*
X150622000Y-54051285D01*
X150622000Y-55194200D01*
X152908000Y-55194200D01*
X152908000Y-54051285D01*
X153162000Y-54051285D01*
X153162000Y-55194200D01*
X155448000Y-55194200D01*
X155448000Y-54051285D01*
X155702000Y-54051285D01*
X155702000Y-55194200D01*
X157988000Y-55194200D01*
X157988000Y-54051285D01*
X158242000Y-54051285D01*
X158242000Y-55194200D01*
X160528000Y-55194200D01*
X160528000Y-54051285D01*
X160782000Y-54051285D01*
X160782000Y-55194200D01*
X163068000Y-55194200D01*
X163068000Y-54051285D01*
X163322000Y-54051285D01*
X163322000Y-55194200D01*
X165608000Y-55194200D01*
X165608000Y-54051285D01*
X165862000Y-54051285D01*
X165862000Y-55194200D01*
X168148000Y-55194200D01*
X168148000Y-54051285D01*
X168402000Y-54051285D01*
X168402000Y-55194200D01*
X170688000Y-55194200D01*
X170688000Y-54051285D01*
X170942000Y-54051285D01*
X170942000Y-55194200D01*
X170962000Y-55194200D01*
X170962000Y-55448200D01*
X170942000Y-55448200D01*
X170942000Y-56591115D01*
X171164039Y-56713104D01*
X171552423Y-56552241D01*
X171967389Y-56176334D01*
X172064053Y-55972092D01*
X172320423Y-56355777D01*
X172795091Y-56672940D01*
X173213667Y-56756200D01*
X173496333Y-56756200D01*
X173914909Y-56672940D01*
X174389577Y-56355777D01*
X174706740Y-55881109D01*
X174818113Y-55321200D01*
X174706740Y-54761291D01*
X174389577Y-54286623D01*
X173914909Y-53969460D01*
X173496333Y-53886200D01*
X173213667Y-53886200D01*
X172795091Y-53969460D01*
X172320423Y-54286623D01*
X172064053Y-54670308D01*
X171967389Y-54466066D01*
X171552423Y-54090159D01*
X171164039Y-53929296D01*
X170942000Y-54051285D01*
X170688000Y-54051285D01*
X170465961Y-53929296D01*
X170077577Y-54090159D01*
X169662611Y-54466066D01*
X169545000Y-54714567D01*
X169427389Y-54466066D01*
X169012423Y-54090159D01*
X168624039Y-53929296D01*
X168402000Y-54051285D01*
X168148000Y-54051285D01*
X167925961Y-53929296D01*
X167537577Y-54090159D01*
X167122611Y-54466066D01*
X167005000Y-54714567D01*
X166887389Y-54466066D01*
X166472423Y-54090159D01*
X166084039Y-53929296D01*
X165862000Y-54051285D01*
X165608000Y-54051285D01*
X165385961Y-53929296D01*
X164997577Y-54090159D01*
X164582611Y-54466066D01*
X164465000Y-54714567D01*
X164347389Y-54466066D01*
X163932423Y-54090159D01*
X163544039Y-53929296D01*
X163322000Y-54051285D01*
X163068000Y-54051285D01*
X162845961Y-53929296D01*
X162457577Y-54090159D01*
X162042611Y-54466066D01*
X161925000Y-54714567D01*
X161807389Y-54466066D01*
X161392423Y-54090159D01*
X161004039Y-53929296D01*
X160782000Y-54051285D01*
X160528000Y-54051285D01*
X160305961Y-53929296D01*
X159917577Y-54090159D01*
X159502611Y-54466066D01*
X159385000Y-54714567D01*
X159267389Y-54466066D01*
X158852423Y-54090159D01*
X158464039Y-53929296D01*
X158242000Y-54051285D01*
X157988000Y-54051285D01*
X157765961Y-53929296D01*
X157377577Y-54090159D01*
X156962611Y-54466066D01*
X156845000Y-54714567D01*
X156727389Y-54466066D01*
X156312423Y-54090159D01*
X155924039Y-53929296D01*
X155702000Y-54051285D01*
X155448000Y-54051285D01*
X155225961Y-53929296D01*
X154837577Y-54090159D01*
X154422611Y-54466066D01*
X154305000Y-54714567D01*
X154187389Y-54466066D01*
X153772423Y-54090159D01*
X153384039Y-53929296D01*
X153162000Y-54051285D01*
X152908000Y-54051285D01*
X152685961Y-53929296D01*
X152297577Y-54090159D01*
X151882611Y-54466066D01*
X151765000Y-54714567D01*
X151647389Y-54466066D01*
X151232423Y-54090159D01*
X150844039Y-53929296D01*
X150622000Y-54051285D01*
X150368000Y-54051285D01*
X150145961Y-53929296D01*
X149757577Y-54090159D01*
X149342611Y-54466066D01*
X149103086Y-54972159D01*
X146974219Y-54972159D01*
X146347040Y-54786085D01*
X146050000Y-54940818D01*
X145796000Y-54940818D01*
X145498960Y-54786085D01*
X144790806Y-54996183D01*
X144216958Y-55461287D01*
X143864779Y-56110589D01*
X143835305Y-56251555D01*
X135510695Y-56251555D01*
X135481221Y-56110589D01*
X135129042Y-55461287D01*
X134555194Y-54996183D01*
X133847040Y-54786085D01*
X133550000Y-54940818D01*
X133296000Y-54940818D01*
X132998960Y-54786085D01*
X132290806Y-54996183D01*
X131716958Y-55461287D01*
X131364779Y-56110589D01*
X131335305Y-56251555D01*
X130009215Y-56251555D01*
X130256740Y-55881109D01*
X130368113Y-55321200D01*
X130256740Y-54761291D01*
X129939577Y-54286623D01*
X129464909Y-53969460D01*
X129046333Y-53886200D01*
X128763667Y-53886200D01*
X128345091Y-53969460D01*
X127870423Y-54286623D01*
X127635000Y-54638958D01*
X127399577Y-54286623D01*
X126924909Y-53969460D01*
X126506333Y-53886200D01*
X126223667Y-53886200D01*
X125805091Y-53969460D01*
X125657234Y-54068255D01*
X125194478Y-53605500D01*
X175063069Y-53605500D01*
X175244777Y-53641644D01*
X175339539Y-53704961D01*
X175402856Y-53799723D01*
X175439001Y-53981435D01*
X175439000Y-91843989D01*
X175394280Y-91799269D01*
X175013874Y-91641700D01*
X174602126Y-91641700D01*
X174221720Y-91799269D01*
X174129289Y-91891700D01*
X173998257Y-91891700D01*
X173991000Y-91884443D01*
X173991000Y-91753726D01*
X173833431Y-91373320D01*
X173542280Y-91082169D01*
X173161874Y-90924600D01*
X172750126Y-90924600D01*
X172369720Y-91082169D01*
X172252700Y-91199189D01*
X172252700Y-80261616D01*
X172568000Y-80324333D01*
X173108400Y-80216841D01*
X173566529Y-79910729D01*
X173872641Y-79452600D01*
X173953000Y-79048606D01*
X173953000Y-78075793D01*
X173872641Y-77671800D01*
X173566528Y-77213671D01*
X173108399Y-76907559D01*
X172679270Y-76822200D01*
X173056439Y-76822200D01*
X173583862Y-76603734D01*
X173987534Y-76200062D01*
X174206000Y-75672639D01*
X174206000Y-75101761D01*
X173987534Y-74574338D01*
X173583862Y-74170666D01*
X173518701Y-74143675D01*
X173525005Y-74141064D01*
X173599139Y-73894945D01*
X172771000Y-73066805D01*
X171942861Y-73894945D01*
X172016995Y-74141064D01*
X172023746Y-74143490D01*
X171958138Y-74170666D01*
X171554466Y-74574338D01*
X171336000Y-75101761D01*
X171336000Y-75672639D01*
X171554466Y-76200062D01*
X171958138Y-76603734D01*
X172476207Y-76818326D01*
X172027600Y-76907559D01*
X171569471Y-77213672D01*
X171298000Y-77619957D01*
X171026528Y-77213671D01*
X170568399Y-76907559D01*
X170028000Y-76800067D01*
X169487600Y-76907559D01*
X169029471Y-77213672D01*
X168758000Y-77619957D01*
X168486528Y-77213671D01*
X168028399Y-76907559D01*
X167488000Y-76800067D01*
X166947600Y-76907559D01*
X166489471Y-77213672D01*
X166218000Y-77619957D01*
X165946528Y-77213671D01*
X165488399Y-76907559D01*
X164948000Y-76800067D01*
X164407600Y-76907559D01*
X163949471Y-77213672D01*
X163678000Y-77619957D01*
X163406528Y-77213671D01*
X162948399Y-76907559D01*
X162408000Y-76800067D01*
X161867600Y-76907559D01*
X161409471Y-77213672D01*
X161138000Y-77619957D01*
X160866528Y-77213671D01*
X160408399Y-76907559D01*
X159868000Y-76800067D01*
X159327600Y-76907559D01*
X158869471Y-77213672D01*
X158598000Y-77619957D01*
X158326528Y-77213671D01*
X157868399Y-76907559D01*
X157328000Y-76800067D01*
X156787600Y-76907559D01*
X156329471Y-77213672D01*
X156058000Y-77619957D01*
X155786528Y-77213671D01*
X155328399Y-76907559D01*
X154788000Y-76800067D01*
X154247600Y-76907559D01*
X153789471Y-77213672D01*
X153518000Y-77619957D01*
X153246528Y-77213671D01*
X152788399Y-76907559D01*
X152248000Y-76800067D01*
X151707600Y-76907559D01*
X151249471Y-77213672D01*
X150978000Y-77619957D01*
X150706528Y-77213671D01*
X150248399Y-76907559D01*
X149708000Y-76800067D01*
X149167600Y-76907559D01*
X148709471Y-77213672D01*
X148438000Y-77619957D01*
X148166528Y-77213671D01*
X147708399Y-76907559D01*
X147168000Y-76800067D01*
X146627600Y-76907559D01*
X146169471Y-77213672D01*
X145898000Y-77619957D01*
X145626528Y-77213671D01*
X145168399Y-76907559D01*
X144628000Y-76800067D01*
X144087600Y-76907559D01*
X143629471Y-77213672D01*
X143358000Y-77619957D01*
X143086528Y-77213671D01*
X142628399Y-76907559D01*
X142088000Y-76800067D01*
X141772600Y-76862804D01*
X141772600Y-75089061D01*
X142532000Y-75089061D01*
X142532000Y-75659939D01*
X142750466Y-76187362D01*
X143154138Y-76591034D01*
X143681561Y-76809500D01*
X144252439Y-76809500D01*
X144779862Y-76591034D01*
X145183534Y-76187362D01*
X145402000Y-75659939D01*
X145402000Y-75089061D01*
X145183534Y-74561638D01*
X144779862Y-74157966D01*
X144714701Y-74130975D01*
X144721005Y-74128364D01*
X144795139Y-73882245D01*
X143967000Y-73054105D01*
X143138861Y-73882245D01*
X143212995Y-74128364D01*
X143219746Y-74130790D01*
X143154138Y-74157966D01*
X142750466Y-74561638D01*
X142532000Y-75089061D01*
X141772600Y-75089061D01*
X141772600Y-72657723D01*
X142520035Y-72657723D01*
X142547222Y-73227954D01*
X142713136Y-73628505D01*
X142959255Y-73702639D01*
X143787395Y-72874500D01*
X144146605Y-72874500D01*
X144974745Y-73702639D01*
X145220864Y-73628505D01*
X145413965Y-73091277D01*
X145386778Y-72521046D01*
X145220864Y-72120495D01*
X144974745Y-72046361D01*
X144146605Y-72874500D01*
X143787395Y-72874500D01*
X142959255Y-72046361D01*
X142713136Y-72120495D01*
X142520035Y-72657723D01*
X141772600Y-72657723D01*
X141772600Y-71866755D01*
X143138861Y-71866755D01*
X143967000Y-72694895D01*
X144795139Y-71866755D01*
X144721005Y-71620636D01*
X144183777Y-71427535D01*
X143613546Y-71454722D01*
X143212995Y-71620636D01*
X143138861Y-71866755D01*
X141772600Y-71866755D01*
X141772600Y-70678157D01*
X144835957Y-67614800D01*
X149262000Y-67614800D01*
X149262000Y-67964800D01*
X149416028Y-68485149D01*
X149757460Y-68906945D01*
X150234316Y-69165973D01*
X150305815Y-69180118D01*
X150520000Y-69057456D01*
X150520000Y-67614800D01*
X149262000Y-67614800D01*
X144835957Y-67614800D01*
X145439957Y-67010800D01*
X149262000Y-67010800D01*
X149262000Y-67360800D01*
X150520000Y-67360800D01*
X150520000Y-65918144D01*
X150305815Y-65795482D01*
X150234316Y-65809627D01*
X149757460Y-66068655D01*
X149416028Y-66490451D01*
X149262000Y-67010800D01*
X145439957Y-67010800D01*
X149047560Y-63403198D01*
X149047560Y-63741200D01*
X149096843Y-63988965D01*
X149237191Y-64199009D01*
X149447235Y-64339357D01*
X149695000Y-64388640D01*
X149753726Y-64388640D01*
X149755546Y-64397791D01*
X149885251Y-64591908D01*
X149885254Y-64591911D01*
X149929048Y-64657453D01*
X149994590Y-64701247D01*
X151154443Y-65861100D01*
X151059684Y-65809627D01*
X150988185Y-65795482D01*
X150774000Y-65918144D01*
X150774000Y-67360800D01*
X150794000Y-67360800D01*
X150794000Y-67614800D01*
X150774000Y-67614800D01*
X150774000Y-69057456D01*
X150988185Y-69180118D01*
X151059684Y-69165973D01*
X151301701Y-69034510D01*
X151301700Y-73529532D01*
X151187400Y-73453159D01*
X150647000Y-73345667D01*
X150106601Y-73453159D01*
X149648472Y-73759271D01*
X149342359Y-74217400D01*
X149262000Y-74621393D01*
X149262000Y-75594206D01*
X149342359Y-75998199D01*
X149648471Y-76456328D01*
X150106600Y-76762441D01*
X150647000Y-76869933D01*
X151187399Y-76762441D01*
X151645528Y-76456329D01*
X151917000Y-76050043D01*
X152188471Y-76456328D01*
X152646600Y-76762441D01*
X153187000Y-76869933D01*
X153727399Y-76762441D01*
X154185528Y-76456329D01*
X154457000Y-76050043D01*
X154728471Y-76456328D01*
X155186600Y-76762441D01*
X155727000Y-76869933D01*
X156267399Y-76762441D01*
X156725528Y-76456329D01*
X156997000Y-76050043D01*
X157268471Y-76456328D01*
X157726600Y-76762441D01*
X158267000Y-76869933D01*
X158807399Y-76762441D01*
X159265528Y-76456329D01*
X159537000Y-76050043D01*
X159808471Y-76456328D01*
X160266600Y-76762441D01*
X160807000Y-76869933D01*
X161347399Y-76762441D01*
X161805528Y-76456329D01*
X162077000Y-76050043D01*
X162348471Y-76456328D01*
X162806600Y-76762441D01*
X163347000Y-76869933D01*
X163887399Y-76762441D01*
X164345528Y-76456329D01*
X164617000Y-76050043D01*
X164888471Y-76456328D01*
X165346600Y-76762441D01*
X165887000Y-76869933D01*
X166427399Y-76762441D01*
X166885528Y-76456329D01*
X167157000Y-76050043D01*
X167428471Y-76456328D01*
X167886600Y-76762441D01*
X168427000Y-76869933D01*
X168967399Y-76762441D01*
X169425528Y-76456329D01*
X169731641Y-75998200D01*
X169812000Y-75594207D01*
X169812000Y-74621394D01*
X169731641Y-74217400D01*
X169425529Y-73759271D01*
X168967400Y-73453159D01*
X168427000Y-73345667D01*
X167886601Y-73453159D01*
X167428472Y-73759271D01*
X167157000Y-74165556D01*
X166885529Y-73759271D01*
X166427400Y-73453159D01*
X165887000Y-73345667D01*
X165346601Y-73453159D01*
X164888472Y-73759271D01*
X164617000Y-74165556D01*
X164345529Y-73759271D01*
X163887400Y-73453159D01*
X163347000Y-73345667D01*
X162806601Y-73453159D01*
X162348472Y-73759271D01*
X162077000Y-74165556D01*
X161805529Y-73759271D01*
X161347400Y-73453159D01*
X160807000Y-73345667D01*
X160491700Y-73408384D01*
X160491700Y-72670423D01*
X171324035Y-72670423D01*
X171351222Y-73240654D01*
X171517136Y-73641205D01*
X171763255Y-73715339D01*
X172591395Y-72887200D01*
X172950605Y-72887200D01*
X173778745Y-73715339D01*
X174024864Y-73641205D01*
X174217965Y-73103977D01*
X174190778Y-72533746D01*
X174024864Y-72133195D01*
X173778745Y-72059061D01*
X172950605Y-72887200D01*
X172591395Y-72887200D01*
X171763255Y-72059061D01*
X171517136Y-72133195D01*
X171324035Y-72670423D01*
X160491700Y-72670423D01*
X160491700Y-71879455D01*
X171942861Y-71879455D01*
X172771000Y-72707595D01*
X173599139Y-71879455D01*
X173525005Y-71633336D01*
X172987777Y-71440235D01*
X172417546Y-71467422D01*
X172016995Y-71633336D01*
X171942861Y-71879455D01*
X160491700Y-71879455D01*
X160491700Y-69187216D01*
X160807000Y-69249933D01*
X161347399Y-69142441D01*
X161719053Y-68894110D01*
X162282051Y-69457108D01*
X162325847Y-69522653D01*
X162585508Y-69696154D01*
X162814484Y-69741700D01*
X162814488Y-69741700D01*
X162891800Y-69757078D01*
X162969112Y-69741700D01*
X166880788Y-69741700D01*
X166958100Y-69757078D01*
X167035412Y-69741700D01*
X167035416Y-69741700D01*
X167264392Y-69696154D01*
X167524053Y-69522653D01*
X167567849Y-69457108D01*
X167884152Y-69140805D01*
X167886600Y-69142441D01*
X168427000Y-69249933D01*
X168967399Y-69142441D01*
X169425528Y-68836329D01*
X169731641Y-68378200D01*
X169812000Y-67974207D01*
X169812000Y-67001394D01*
X169731641Y-66597400D01*
X169425529Y-66139271D01*
X168967400Y-65833159D01*
X168427000Y-65725667D01*
X167886601Y-65833159D01*
X167772300Y-65909532D01*
X167772300Y-64304320D01*
X168133667Y-64376200D01*
X168416333Y-64376200D01*
X168834909Y-64292940D01*
X169309577Y-63975777D01*
X169545000Y-63623442D01*
X169780423Y-63975777D01*
X170255091Y-64292940D01*
X170673667Y-64376200D01*
X170956333Y-64376200D01*
X171374909Y-64292940D01*
X171849577Y-63975777D01*
X172085000Y-63623442D01*
X172320423Y-63975777D01*
X172795091Y-64292940D01*
X173213667Y-64376200D01*
X173496333Y-64376200D01*
X173914909Y-64292940D01*
X174389577Y-63975777D01*
X174706740Y-63501109D01*
X174818113Y-62941200D01*
X174706740Y-62381291D01*
X174389577Y-61906623D01*
X173914909Y-61589460D01*
X173496333Y-61506200D01*
X173213667Y-61506200D01*
X172795091Y-61589460D01*
X172320423Y-61906623D01*
X172085000Y-62258958D01*
X171849577Y-61906623D01*
X171374909Y-61589460D01*
X170956333Y-61506200D01*
X170673667Y-61506200D01*
X170255091Y-61589460D01*
X169780423Y-61906623D01*
X169545000Y-62258958D01*
X169309577Y-61906623D01*
X168834909Y-61589460D01*
X168416333Y-61506200D01*
X168133667Y-61506200D01*
X167715091Y-61589460D01*
X167370480Y-61819722D01*
X166836349Y-61285592D01*
X166792553Y-61220047D01*
X166532892Y-61046546D01*
X166303916Y-61001000D01*
X166303912Y-61001000D01*
X166226600Y-60985622D01*
X166149288Y-61001000D01*
X165339412Y-61001000D01*
X165262100Y-60985622D01*
X165184788Y-61001000D01*
X165184784Y-61001000D01*
X164955808Y-61046546D01*
X164761691Y-61176251D01*
X164761689Y-61176253D01*
X164696147Y-61220047D01*
X164652353Y-61285589D01*
X164110730Y-61827212D01*
X163754909Y-61589460D01*
X163336333Y-61506200D01*
X163053667Y-61506200D01*
X162635091Y-61589460D01*
X162160423Y-61906623D01*
X161925000Y-62258958D01*
X161689577Y-61906623D01*
X161214909Y-61589460D01*
X160796333Y-61506200D01*
X160513667Y-61506200D01*
X160095091Y-61589460D01*
X159620423Y-61906623D01*
X159385000Y-62258958D01*
X159149577Y-61906623D01*
X158674909Y-61589460D01*
X158256333Y-61506200D01*
X157973667Y-61506200D01*
X157555091Y-61589460D01*
X157080423Y-61906623D01*
X156845000Y-62258958D01*
X156609577Y-61906623D01*
X156134909Y-61589460D01*
X155716333Y-61506200D01*
X155433667Y-61506200D01*
X155015091Y-61589460D01*
X154669220Y-61820563D01*
X154137849Y-61289192D01*
X154094053Y-61223647D01*
X153834392Y-61050146D01*
X153605416Y-61004600D01*
X153605412Y-61004600D01*
X153528100Y-60989222D01*
X153450788Y-61004600D01*
X149628310Y-61004600D01*
X149550999Y-60989222D01*
X149473688Y-61004600D01*
X149473684Y-61004600D01*
X149244708Y-61050146D01*
X149244706Y-61050147D01*
X149244707Y-61050147D01*
X149050591Y-61179851D01*
X149050589Y-61179853D01*
X148985047Y-61223647D01*
X148941253Y-61289189D01*
X147979639Y-62250803D01*
X148094929Y-61671200D01*
X147948631Y-60935710D01*
X147532009Y-60312191D01*
X146908490Y-59895569D01*
X146358655Y-59786200D01*
X145487345Y-59786200D01*
X144937510Y-59895569D01*
X144313991Y-60312191D01*
X143897369Y-60935710D01*
X143751071Y-61671200D01*
X143897369Y-62406690D01*
X144313991Y-63030209D01*
X144937510Y-63446831D01*
X145487345Y-63556200D01*
X146358655Y-63556200D01*
X146752604Y-63477839D01*
X140487192Y-69743251D01*
X140421647Y-69787047D01*
X140248146Y-70046709D01*
X140202600Y-70275685D01*
X140202600Y-70275688D01*
X140187222Y-70353000D01*
X140202600Y-70430312D01*
X140202600Y-73387113D01*
X139675000Y-73282167D01*
X139134601Y-73389659D01*
X139038700Y-73453738D01*
X139038700Y-69014862D01*
X139134600Y-69078941D01*
X139675000Y-69186433D01*
X140215399Y-69078941D01*
X140673528Y-68772829D01*
X140979641Y-68314700D01*
X141060000Y-67910707D01*
X141060000Y-66937894D01*
X140979641Y-66533900D01*
X140673529Y-66075771D01*
X140215400Y-65769659D01*
X139675000Y-65662167D01*
X139134601Y-65769659D01*
X139038700Y-65833738D01*
X139038700Y-64018910D01*
X139054078Y-63941599D01*
X139038700Y-63864288D01*
X139038700Y-63864284D01*
X138993154Y-63635308D01*
X138903485Y-63501109D01*
X138863449Y-63441191D01*
X138863447Y-63441189D01*
X138819653Y-63375647D01*
X138754111Y-63331853D01*
X134955249Y-59532992D01*
X134911453Y-59467447D01*
X134651792Y-59293946D01*
X134422816Y-59248400D01*
X134422812Y-59248400D01*
X134345500Y-59233022D01*
X134268188Y-59248400D01*
X132609010Y-59248400D01*
X132531699Y-59233022D01*
X132454388Y-59248400D01*
X132454384Y-59248400D01*
X132225408Y-59293946D01*
X132225406Y-59293947D01*
X132225407Y-59293947D01*
X132031291Y-59423651D01*
X132031289Y-59423653D01*
X131965747Y-59467447D01*
X131921953Y-59532989D01*
X129705036Y-61749907D01*
X129464909Y-61589460D01*
X129046333Y-61506200D01*
X128763667Y-61506200D01*
X128345091Y-61589460D01*
X127870423Y-61906623D01*
X127635000Y-62258958D01*
X127399577Y-61906623D01*
X126924909Y-61589460D01*
X126506333Y-61506200D01*
X126223667Y-61506200D01*
X125805091Y-61589460D01*
X125330423Y-61906623D01*
X125095000Y-62258958D01*
X124859577Y-61906623D01*
X124384909Y-61589460D01*
X123966333Y-61506200D01*
X123683667Y-61506200D01*
X123265091Y-61589460D01*
X122790423Y-61906623D01*
X122709785Y-62027306D01*
X122683157Y-61893435D01*
X122542809Y-61683391D01*
X122332765Y-61543043D01*
X122085000Y-61493760D01*
X120485000Y-61493760D01*
X120237235Y-61543043D01*
X120027191Y-61683391D01*
X119886843Y-61893435D01*
X119837560Y-62141200D01*
X119837560Y-63741200D01*
X119886843Y-63988965D01*
X120027191Y-64199009D01*
X120237235Y-64339357D01*
X120485000Y-64388640D01*
X122085000Y-64388640D01*
X122332765Y-64339357D01*
X122542809Y-64199009D01*
X122683157Y-63988965D01*
X122709785Y-63855094D01*
X122790423Y-63975777D01*
X123265091Y-64292940D01*
X123683667Y-64376200D01*
X123966333Y-64376200D01*
X124384909Y-64292940D01*
X124859577Y-63975777D01*
X125095000Y-63623442D01*
X125330423Y-63975777D01*
X125805091Y-64292940D01*
X126223667Y-64376200D01*
X126506333Y-64376200D01*
X126924909Y-64292940D01*
X127399577Y-63975777D01*
X127635000Y-63623442D01*
X127870423Y-63975777D01*
X128345091Y-64292940D01*
X128763667Y-64376200D01*
X129046333Y-64376200D01*
X129464909Y-64292940D01*
X129939577Y-63975777D01*
X130102311Y-63732228D01*
X130132616Y-63726200D01*
X130361592Y-63680654D01*
X130621253Y-63507153D01*
X130794754Y-63247492D01*
X130808925Y-63176249D01*
X130840300Y-63018516D01*
X130840300Y-63018515D01*
X130855679Y-62941200D01*
X130840300Y-62863884D01*
X130840300Y-62834957D01*
X131375999Y-62299258D01*
X131397369Y-62406690D01*
X131813991Y-63030209D01*
X132257674Y-63326669D01*
X130454192Y-65130151D01*
X130388647Y-65173947D01*
X130344851Y-65239492D01*
X130276352Y-65342008D01*
X130215146Y-65433609D01*
X130169600Y-65662585D01*
X130169600Y-65662588D01*
X130154222Y-65739900D01*
X130169600Y-65817212D01*
X130169600Y-65845965D01*
X130055400Y-65769659D01*
X129515000Y-65662167D01*
X128974601Y-65769659D01*
X128516472Y-66075771D01*
X128245000Y-66482056D01*
X127973529Y-66075771D01*
X127515400Y-65769659D01*
X126975000Y-65662167D01*
X126434601Y-65769659D01*
X125976472Y-66075771D01*
X125689258Y-66505616D01*
X125665972Y-66426951D01*
X125324540Y-66005155D01*
X124847684Y-65746127D01*
X124776185Y-65731982D01*
X124562000Y-65854644D01*
X124562000Y-67297300D01*
X124582000Y-67297300D01*
X124582000Y-67551300D01*
X124562000Y-67551300D01*
X124562000Y-67571300D01*
X124308000Y-67571300D01*
X124308000Y-67551300D01*
X123050000Y-67551300D01*
X123050000Y-67901300D01*
X123204028Y-68421649D01*
X123545460Y-68843445D01*
X124022316Y-69102473D01*
X124093815Y-69116618D01*
X124278014Y-69011129D01*
X122810490Y-70478653D01*
X122744948Y-70522447D01*
X122701154Y-70587989D01*
X122701151Y-70587992D01*
X122571446Y-70782109D01*
X122510522Y-71088400D01*
X122525901Y-71165717D01*
X122525900Y-75781488D01*
X122510522Y-75858800D01*
X122525900Y-75936112D01*
X122525900Y-75936115D01*
X122571446Y-76165091D01*
X122744947Y-76424753D01*
X122810492Y-76468549D01*
X123373151Y-77031208D01*
X123416947Y-77096753D01*
X123676608Y-77270254D01*
X123905584Y-77315800D01*
X123905588Y-77315800D01*
X123982900Y-77331178D01*
X124060212Y-77315800D01*
X125146100Y-77315800D01*
X125146100Y-78156721D01*
X124946407Y-78117000D01*
X123973593Y-78117000D01*
X123569600Y-78197359D01*
X123111471Y-78503471D01*
X122805359Y-78961600D01*
X122697867Y-79502000D01*
X122805359Y-80042400D01*
X123111471Y-80500529D01*
X123517756Y-80772000D01*
X123111471Y-81043471D01*
X122805359Y-81501600D01*
X122697867Y-82042000D01*
X122805359Y-82582400D01*
X123111471Y-83040529D01*
X123517756Y-83312000D01*
X123111471Y-83583471D01*
X122805359Y-84041600D01*
X122697867Y-84582000D01*
X122782573Y-85007848D01*
X122345547Y-85444875D01*
X122271651Y-85494251D01*
X122076048Y-85786991D01*
X122024700Y-86045136D01*
X122024700Y-86045139D01*
X122007363Y-86132300D01*
X122024700Y-86219461D01*
X122024701Y-90982994D01*
X121501777Y-90795035D01*
X120931546Y-90822222D01*
X120530995Y-90988136D01*
X120456861Y-91234255D01*
X121285000Y-92062395D01*
X121299143Y-92048253D01*
X121478748Y-92227858D01*
X121464605Y-92242000D01*
X121478748Y-92256142D01*
X121299142Y-92435748D01*
X121285000Y-92421605D01*
X120456861Y-93249745D01*
X120530995Y-93495864D01*
X120537746Y-93498290D01*
X120472138Y-93525466D01*
X120068466Y-93929138D01*
X119850000Y-94456561D01*
X119850000Y-95027439D01*
X120068466Y-95554862D01*
X120472138Y-95958534D01*
X120999561Y-96177000D01*
X121449095Y-96177000D01*
X121459351Y-96192349D01*
X121533207Y-96241698D01*
X121684700Y-96393223D01*
X121684701Y-111116785D01*
X121501777Y-111051035D01*
X120931546Y-111078222D01*
X120530995Y-111244136D01*
X120456861Y-111490255D01*
X121285000Y-112318395D01*
X121299143Y-112304253D01*
X121478748Y-112483858D01*
X121464605Y-112498000D01*
X121478748Y-112512143D01*
X121299143Y-112691748D01*
X121285000Y-112677605D01*
X120456861Y-113505745D01*
X120530995Y-113751864D01*
X120537746Y-113754290D01*
X120472138Y-113781466D01*
X120068466Y-114185138D01*
X119850000Y-114712561D01*
X119850000Y-115283439D01*
X120068466Y-115810862D01*
X120472138Y-116214534D01*
X120999561Y-116433000D01*
X121570439Y-116433000D01*
X122097862Y-116214534D01*
X122501534Y-115810862D01*
X122720000Y-115283439D01*
X122720000Y-115109270D01*
X122805359Y-115538400D01*
X123111471Y-115996529D01*
X123569600Y-116302641D01*
X123575001Y-116303715D01*
X123575000Y-121308814D01*
X123190000Y-121232232D01*
X122644919Y-121340656D01*
X122182821Y-121649420D01*
X121908420Y-122060090D01*
X121892059Y-122004659D01*
X121548026Y-121578970D01*
X121067277Y-121317340D01*
X120993070Y-121302380D01*
X120777000Y-121424880D01*
X120777000Y-124942600D01*
X120797000Y-124942600D01*
X120797000Y-125196600D01*
X120777000Y-125196600D01*
X120777000Y-125216600D01*
X120523000Y-125216600D01*
X120523000Y-125196600D01*
X119253000Y-125196600D01*
X119253000Y-126492000D01*
X119201000Y-126492000D01*
X119201000Y-122529600D01*
X119253000Y-122529600D01*
X119253000Y-124942600D01*
X120523000Y-124942600D01*
X120523000Y-121424880D01*
X120306930Y-121302380D01*
X120232723Y-121317340D01*
X119751974Y-121578970D01*
X119407941Y-122004659D01*
X119253000Y-122529600D01*
X119201000Y-122529600D01*
X119201000Y-112281223D01*
X119838035Y-112281223D01*
X119865222Y-112851454D01*
X120031136Y-113252005D01*
X120277255Y-113326139D01*
X121105395Y-112498000D01*
X120277255Y-111669861D01*
X120031136Y-111743995D01*
X119838035Y-112281223D01*
X119201000Y-112281223D01*
X119201000Y-92025223D01*
X119838035Y-92025223D01*
X119865222Y-92595454D01*
X120031136Y-92996005D01*
X120277255Y-93070139D01*
X121105395Y-92242000D01*
X120277255Y-91413861D01*
X120031136Y-91487995D01*
X119838035Y-92025223D01*
X119201000Y-92025223D01*
X119201000Y-66947300D01*
X123050000Y-66947300D01*
X123050000Y-67297300D01*
X124308000Y-67297300D01*
X124308000Y-65854644D01*
X124093815Y-65731982D01*
X124022316Y-65746127D01*
X123545460Y-66005155D01*
X123204028Y-66426951D01*
X123050000Y-66947300D01*
X119201000Y-66947300D01*
X119201000Y-57090845D01*
X131335305Y-57090845D01*
X131364779Y-57231811D01*
X131716958Y-57881113D01*
X132290806Y-58346217D01*
X132998960Y-58556315D01*
X133296000Y-58401582D01*
X133296000Y-56798200D01*
X133550000Y-56798200D01*
X133550000Y-58401582D01*
X133847040Y-58556315D01*
X134555194Y-58346217D01*
X135129042Y-57881113D01*
X135481221Y-57231811D01*
X135510695Y-57090845D01*
X143835305Y-57090845D01*
X143864779Y-57231811D01*
X144216958Y-57881113D01*
X144790806Y-58346217D01*
X145498960Y-58556315D01*
X145796000Y-58401582D01*
X145796000Y-56798200D01*
X146050000Y-56798200D01*
X146050000Y-58401582D01*
X146347040Y-58556315D01*
X147055194Y-58346217D01*
X147629042Y-57881113D01*
X147981221Y-57231811D01*
X148010695Y-57090845D01*
X147894572Y-56798200D01*
X146050000Y-56798200D01*
X145796000Y-56798200D01*
X143951428Y-56798200D01*
X143835305Y-57090845D01*
X135510695Y-57090845D01*
X135394572Y-56798200D01*
X133550000Y-56798200D01*
X133296000Y-56798200D01*
X131451428Y-56798200D01*
X131335305Y-57090845D01*
X119201000Y-57090845D01*
X119201000Y-53981431D01*
X119237144Y-53799723D01*
X119300461Y-53704961D01*
X119395223Y-53641644D01*
X119576930Y-53605500D01*
X122452421Y-53605500D01*
X121990908Y-54067014D01*
G36*
X136241401Y-108188859D02*
X136241401Y-113816712D01*
X136121385Y-113767000D01*
X135530615Y-113767000D01*
X134984815Y-113993078D01*
X134567078Y-114410815D01*
X134341000Y-114956615D01*
X134341000Y-115547385D01*
X134567078Y-116093185D01*
X134984815Y-116510922D01*
X135530615Y-116737000D01*
X136121385Y-116737000D01*
X136241400Y-116687288D01*
X136241400Y-120063388D01*
X136226022Y-120140700D01*
X136241400Y-120218012D01*
X136241400Y-120218015D01*
X136286946Y-120446991D01*
X136460447Y-120706653D01*
X136525992Y-120750449D01*
X137424105Y-121648562D01*
X137422821Y-121649420D01*
X137160001Y-122042759D01*
X136897180Y-121649420D01*
X136435082Y-121340656D01*
X135890000Y-121232232D01*
X135344919Y-121340656D01*
X134882821Y-121649420D01*
X134620001Y-122042759D01*
X134357180Y-121649420D01*
X133895082Y-121340656D01*
X133350000Y-121232232D01*
X132804919Y-121340656D01*
X132342821Y-121649420D01*
X132080001Y-122042759D01*
X131817180Y-121649420D01*
X131602794Y-121506172D01*
X131595000Y-121466988D01*
X131595000Y-121466984D01*
X131549454Y-121238008D01*
X131414000Y-121035288D01*
X131414000Y-116347277D01*
X131593593Y-116383000D01*
X132566407Y-116383000D01*
X132970400Y-116302641D01*
X133428529Y-115996529D01*
X133734641Y-115538400D01*
X133842133Y-114998000D01*
X133734641Y-114457600D01*
X133428529Y-113999471D01*
X133022244Y-113728000D01*
X133428529Y-113456529D01*
X133734641Y-112998400D01*
X133842133Y-112458000D01*
X133734641Y-111917600D01*
X133428529Y-111459471D01*
X133022244Y-111188000D01*
X133428529Y-110916529D01*
X133734641Y-110458400D01*
X133842133Y-109918000D01*
X133734641Y-109377600D01*
X133428529Y-108919471D01*
X133022244Y-108648000D01*
X133428529Y-108376529D01*
X133734641Y-107918400D01*
X133842133Y-107378000D01*
X133734641Y-106837600D01*
X133428529Y-106379471D01*
X133022244Y-106108000D01*
X133428529Y-105836529D01*
X133612997Y-105560454D01*
X136241401Y-108188859D01*
X136241401Y-108188859D01*
G37*
X136241401Y-108188859D02*
X136241401Y-113816712D01*
X136121385Y-113767000D01*
X135530615Y-113767000D01*
X134984815Y-113993078D01*
X134567078Y-114410815D01*
X134341000Y-114956615D01*
X134341000Y-115547385D01*
X134567078Y-116093185D01*
X134984815Y-116510922D01*
X135530615Y-116737000D01*
X136121385Y-116737000D01*
X136241400Y-116687288D01*
X136241400Y-120063388D01*
X136226022Y-120140700D01*
X136241400Y-120218012D01*
X136241400Y-120218015D01*
X136286946Y-120446991D01*
X136460447Y-120706653D01*
X136525992Y-120750449D01*
X137424105Y-121648562D01*
X137422821Y-121649420D01*
X137160001Y-122042759D01*
X136897180Y-121649420D01*
X136435082Y-121340656D01*
X135890000Y-121232232D01*
X135344919Y-121340656D01*
X134882821Y-121649420D01*
X134620001Y-122042759D01*
X134357180Y-121649420D01*
X133895082Y-121340656D01*
X133350000Y-121232232D01*
X132804919Y-121340656D01*
X132342821Y-121649420D01*
X132080001Y-122042759D01*
X131817180Y-121649420D01*
X131602794Y-121506172D01*
X131595000Y-121466988D01*
X131595000Y-121466984D01*
X131549454Y-121238008D01*
X131414000Y-121035288D01*
X131414000Y-116347277D01*
X131593593Y-116383000D01*
X132566407Y-116383000D01*
X132970400Y-116302641D01*
X133428529Y-115996529D01*
X133734641Y-115538400D01*
X133842133Y-114998000D01*
X133734641Y-114457600D01*
X133428529Y-113999471D01*
X133022244Y-113728000D01*
X133428529Y-113456529D01*
X133734641Y-112998400D01*
X133842133Y-112458000D01*
X133734641Y-111917600D01*
X133428529Y-111459471D01*
X133022244Y-111188000D01*
X133428529Y-110916529D01*
X133734641Y-110458400D01*
X133842133Y-109918000D01*
X133734641Y-109377600D01*
X133428529Y-108919471D01*
X133022244Y-108648000D01*
X133428529Y-108376529D01*
X133734641Y-107918400D01*
X133842133Y-107378000D01*
X133734641Y-106837600D01*
X133428529Y-106379471D01*
X133022244Y-106108000D01*
X133428529Y-105836529D01*
X133612997Y-105560454D01*
X136241401Y-108188859D01*
G36*
X129813300Y-102691188D02*
X129797922Y-102768500D01*
X129813300Y-102845812D01*
X129813300Y-102845815D01*
X129858846Y-103074791D01*
X130032347Y-103334453D01*
X130097892Y-103378249D01*
X130662434Y-103942791D01*
X130425359Y-104297600D01*
X130317867Y-104838000D01*
X130425359Y-105378400D01*
X130647334Y-105710609D01*
X130128592Y-106229351D01*
X130063047Y-106273147D01*
X129889546Y-106532809D01*
X129844000Y-106761785D01*
X129844000Y-106761788D01*
X129828622Y-106839100D01*
X129844000Y-106916412D01*
X129844001Y-121285983D01*
X129828622Y-121363300D01*
X129875830Y-121600637D01*
X129802821Y-121649420D01*
X129540001Y-122042759D01*
X129277180Y-121649420D01*
X129055000Y-121500964D01*
X129055000Y-100797957D01*
X129813301Y-100039656D01*
X129813300Y-102691188D01*
X129813300Y-102691188D01*
G37*
X129813300Y-102691188D02*
X129797922Y-102768500D01*
X129813300Y-102845812D01*
X129813300Y-102845815D01*
X129858846Y-103074791D01*
X130032347Y-103334453D01*
X130097892Y-103378249D01*
X130662434Y-103942791D01*
X130425359Y-104297600D01*
X130317867Y-104838000D01*
X130425359Y-105378400D01*
X130647334Y-105710609D01*
X130128592Y-106229351D01*
X130063047Y-106273147D01*
X129889546Y-106532809D01*
X129844000Y-106761785D01*
X129844000Y-106761788D01*
X129828622Y-106839100D01*
X129844000Y-106916412D01*
X129844001Y-121285983D01*
X129828622Y-121363300D01*
X129875830Y-121600637D01*
X129802821Y-121649420D01*
X129540001Y-122042759D01*
X129277180Y-121649420D01*
X129055000Y-121500964D01*
X129055000Y-100797957D01*
X129813301Y-100039656D01*
X129813300Y-102691188D01*
G36*
X169054472Y-115140529D02*
X169512601Y-115446641D01*
X170053000Y-115554133D01*
X170593400Y-115446641D01*
X170665000Y-115398799D01*
X170665001Y-121500964D01*
X170442821Y-121649420D01*
X170180001Y-122042759D01*
X169917180Y-121649420D01*
X169702794Y-121506172D01*
X169695000Y-121466988D01*
X169695000Y-121466984D01*
X169649454Y-121238008D01*
X169528514Y-121057009D01*
X169519749Y-121043891D01*
X169519747Y-121043889D01*
X169475953Y-120978347D01*
X169410411Y-120934553D01*
X168298000Y-119822143D01*
X168298000Y-115283205D01*
X168511529Y-115140529D01*
X168783000Y-114734244D01*
X169054472Y-115140529D01*
X169054472Y-115140529D01*
G37*
X169054472Y-115140529D02*
X169512601Y-115446641D01*
X170053000Y-115554133D01*
X170593400Y-115446641D01*
X170665000Y-115398799D01*
X170665001Y-121500964D01*
X170442821Y-121649420D01*
X170180001Y-122042759D01*
X169917180Y-121649420D01*
X169702794Y-121506172D01*
X169695000Y-121466988D01*
X169695000Y-121466984D01*
X169649454Y-121238008D01*
X169528514Y-121057009D01*
X169519749Y-121043891D01*
X169519747Y-121043889D01*
X169475953Y-120978347D01*
X169410411Y-120934553D01*
X168298000Y-119822143D01*
X168298000Y-115283205D01*
X168511529Y-115140529D01*
X168783000Y-114734244D01*
X169054472Y-115140529D01*
G36*
X143654472Y-99900529D02*
X143766478Y-99975369D01*
X143618000Y-100333826D01*
X143618000Y-100745574D01*
X143775569Y-101125980D01*
X143868001Y-101218412D01*
X143868000Y-112300796D01*
X143654471Y-112443472D01*
X143383000Y-112849757D01*
X143111528Y-112443471D01*
X142653399Y-112137359D01*
X142113000Y-112029867D01*
X141572600Y-112137359D01*
X141114471Y-112443472D01*
X140843000Y-112849757D01*
X140571528Y-112443471D01*
X140458000Y-112367614D01*
X140458000Y-99976387D01*
X140571529Y-99900529D01*
X140843000Y-99494244D01*
X141114472Y-99900529D01*
X141572601Y-100206641D01*
X142113000Y-100314133D01*
X142653400Y-100206641D01*
X143111529Y-99900529D01*
X143383000Y-99494244D01*
X143654472Y-99900529D01*
X143654472Y-99900529D01*
G37*
X143654472Y-99900529D02*
X143766478Y-99975369D01*
X143618000Y-100333826D01*
X143618000Y-100745574D01*
X143775569Y-101125980D01*
X143868001Y-101218412D01*
X143868000Y-112300796D01*
X143654471Y-112443472D01*
X143383000Y-112849757D01*
X143111528Y-112443471D01*
X142653399Y-112137359D01*
X142113000Y-112029867D01*
X141572600Y-112137359D01*
X141114471Y-112443472D01*
X140843000Y-112849757D01*
X140571528Y-112443471D01*
X140458000Y-112367614D01*
X140458000Y-99976387D01*
X140571529Y-99900529D01*
X140843000Y-99494244D01*
X141114472Y-99900529D01*
X141572601Y-100206641D01*
X142113000Y-100314133D01*
X142653400Y-100206641D01*
X143111529Y-99900529D01*
X143383000Y-99494244D01*
X143654472Y-99900529D01*
G36*
X138310501Y-90734441D02*
X137926192Y-91118751D01*
X137860647Y-91162547D01*
X137816851Y-91228092D01*
X137783807Y-91277546D01*
X137687146Y-91422209D01*
X137641600Y-91651185D01*
X137641600Y-91651188D01*
X137626222Y-91728500D01*
X137641600Y-91805812D01*
X137641601Y-94788283D01*
X137626222Y-94865600D01*
X137687146Y-95171891D01*
X137816851Y-95366008D01*
X137816854Y-95366011D01*
X137860648Y-95431553D01*
X137926190Y-95475347D01*
X139295840Y-96844997D01*
X139032600Y-96897359D01*
X138574471Y-97203472D01*
X138268359Y-97661601D01*
X138188000Y-98065594D01*
X138188000Y-99038407D01*
X138268359Y-99442400D01*
X138574472Y-99900529D01*
X138688000Y-99976386D01*
X138688001Y-112367613D01*
X138607700Y-112421269D01*
X138607700Y-108029612D01*
X138623078Y-107952300D01*
X138607700Y-107874988D01*
X138607700Y-107874984D01*
X138562154Y-107646008D01*
X138388653Y-107386347D01*
X138323108Y-107342551D01*
X133748630Y-102768073D01*
X133842133Y-102298000D01*
X133734641Y-101757600D01*
X133428529Y-101299471D01*
X132998684Y-101012258D01*
X133077349Y-100988972D01*
X133499145Y-100647540D01*
X133758173Y-100170684D01*
X133772318Y-100099185D01*
X133649656Y-99885000D01*
X132207000Y-99885000D01*
X132207000Y-99905000D01*
X131953000Y-99905000D01*
X131953000Y-99885000D01*
X131933000Y-99885000D01*
X131933000Y-99631000D01*
X131953000Y-99631000D01*
X131953000Y-99611000D01*
X132207000Y-99611000D01*
X132207000Y-99631000D01*
X133649656Y-99631000D01*
X133772318Y-99416815D01*
X133758173Y-99345316D01*
X133499145Y-98868460D01*
X133077349Y-98527028D01*
X132613217Y-98389641D01*
X136212411Y-94790447D01*
X136277953Y-94746653D01*
X136321747Y-94681111D01*
X136321749Y-94681109D01*
X136451454Y-94486992D01*
X136463447Y-94426700D01*
X136497000Y-94258016D01*
X136497000Y-94258012D01*
X136512378Y-94180700D01*
X136497000Y-94103388D01*
X136497000Y-90900157D01*
X138310501Y-89086656D01*
X138310501Y-90734441D01*
X138310501Y-90734441D01*
G37*
X138310501Y-90734441D02*
X137926192Y-91118751D01*
X137860647Y-91162547D01*
X137816851Y-91228092D01*
X137783807Y-91277546D01*
X137687146Y-91422209D01*
X137641600Y-91651185D01*
X137641600Y-91651188D01*
X137626222Y-91728500D01*
X137641600Y-91805812D01*
X137641601Y-94788283D01*
X137626222Y-94865600D01*
X137687146Y-95171891D01*
X137816851Y-95366008D01*
X137816854Y-95366011D01*
X137860648Y-95431553D01*
X137926190Y-95475347D01*
X139295840Y-96844997D01*
X139032600Y-96897359D01*
X138574471Y-97203472D01*
X138268359Y-97661601D01*
X138188000Y-98065594D01*
X138188000Y-99038407D01*
X138268359Y-99442400D01*
X138574472Y-99900529D01*
X138688000Y-99976386D01*
X138688001Y-112367613D01*
X138607700Y-112421269D01*
X138607700Y-108029612D01*
X138623078Y-107952300D01*
X138607700Y-107874988D01*
X138607700Y-107874984D01*
X138562154Y-107646008D01*
X138388653Y-107386347D01*
X138323108Y-107342551D01*
X133748630Y-102768073D01*
X133842133Y-102298000D01*
X133734641Y-101757600D01*
X133428529Y-101299471D01*
X132998684Y-101012258D01*
X133077349Y-100988972D01*
X133499145Y-100647540D01*
X133758173Y-100170684D01*
X133772318Y-100099185D01*
X133649656Y-99885000D01*
X132207000Y-99885000D01*
X132207000Y-99905000D01*
X131953000Y-99905000D01*
X131953000Y-99885000D01*
X131933000Y-99885000D01*
X131933000Y-99631000D01*
X131953000Y-99631000D01*
X131953000Y-99611000D01*
X132207000Y-99611000D01*
X132207000Y-99631000D01*
X133649656Y-99631000D01*
X133772318Y-99416815D01*
X133758173Y-99345316D01*
X133499145Y-98868460D01*
X133077349Y-98527028D01*
X132613217Y-98389641D01*
X136212411Y-94790447D01*
X136277953Y-94746653D01*
X136321747Y-94681111D01*
X136321749Y-94681109D01*
X136451454Y-94486992D01*
X136463447Y-94426700D01*
X136497000Y-94258016D01*
X136497000Y-94258012D01*
X136512378Y-94180700D01*
X136497000Y-94103388D01*
X136497000Y-90900157D01*
X138310501Y-89086656D01*
X138310501Y-90734441D01*
G36*
X129816022Y-78072700D02*
X129831401Y-78150017D01*
X129831400Y-88121088D01*
X129816022Y-88198400D01*
X129831400Y-88275712D01*
X129831400Y-88275715D01*
X129846679Y-88352526D01*
X129876946Y-88504691D01*
X129960757Y-88630122D01*
X130050447Y-88764353D01*
X130115992Y-88808149D01*
X130426995Y-89119152D01*
X130425359Y-89121600D01*
X130317867Y-89662000D01*
X130425359Y-90202400D01*
X130731471Y-90660529D01*
X131137756Y-90932000D01*
X130731471Y-91203471D01*
X130425359Y-91661600D01*
X130317867Y-92202000D01*
X130425359Y-92742400D01*
X130731471Y-93200529D01*
X131137756Y-93472000D01*
X130731471Y-93743471D01*
X130425359Y-94201600D01*
X130317867Y-94742000D01*
X130425359Y-95282400D01*
X130731471Y-95740529D01*
X131189600Y-96046641D01*
X131520234Y-96112408D01*
X127769592Y-99863051D01*
X127704047Y-99906847D01*
X127591400Y-100075435D01*
X127591400Y-80142657D01*
X129854425Y-77879632D01*
X129816022Y-78072700D01*
X129816022Y-78072700D01*
G37*
X129816022Y-78072700D02*
X129831401Y-78150017D01*
X129831400Y-88121088D01*
X129816022Y-88198400D01*
X129831400Y-88275712D01*
X129831400Y-88275715D01*
X129846679Y-88352526D01*
X129876946Y-88504691D01*
X129960757Y-88630122D01*
X130050447Y-88764353D01*
X130115992Y-88808149D01*
X130426995Y-89119152D01*
X130425359Y-89121600D01*
X130317867Y-89662000D01*
X130425359Y-90202400D01*
X130731471Y-90660529D01*
X131137756Y-90932000D01*
X130731471Y-91203471D01*
X130425359Y-91661600D01*
X130317867Y-92202000D01*
X130425359Y-92742400D01*
X130731471Y-93200529D01*
X131137756Y-93472000D01*
X130731471Y-93743471D01*
X130425359Y-94201600D01*
X130317867Y-94742000D01*
X130425359Y-95282400D01*
X130731471Y-95740529D01*
X131189600Y-96046641D01*
X131520234Y-96112408D01*
X127769592Y-99863051D01*
X127704047Y-99906847D01*
X127591400Y-100075435D01*
X127591400Y-80142657D01*
X129854425Y-77879632D01*
X129816022Y-78072700D01*
G36*
X126021400Y-99078056D02*
X125808529Y-98759471D01*
X125350400Y-98453359D01*
X124946407Y-98373000D01*
X123973593Y-98373000D01*
X123569600Y-98453359D01*
X123454700Y-98530133D01*
X123454700Y-96113907D01*
X123472037Y-96026795D01*
X123461642Y-95974506D01*
X123569600Y-96046641D01*
X123973593Y-96127000D01*
X124946407Y-96127000D01*
X125350400Y-96046641D01*
X125808529Y-95740529D01*
X126021400Y-95421944D01*
X126021400Y-99078056D01*
X126021400Y-99078056D01*
G37*
X126021400Y-99078056D02*
X125808529Y-98759471D01*
X125350400Y-98453359D01*
X124946407Y-98373000D01*
X123973593Y-98373000D01*
X123569600Y-98453359D01*
X123454700Y-98530133D01*
X123454700Y-96113907D01*
X123472037Y-96026795D01*
X123461642Y-95974506D01*
X123569600Y-96046641D01*
X123973593Y-96127000D01*
X124946407Y-96127000D01*
X125350400Y-96046641D01*
X125808529Y-95740529D01*
X126021400Y-95421944D01*
X126021400Y-99078056D01*
G36*
X142545138Y-86128734D02*
X142610299Y-86155725D01*
X142603995Y-86158336D01*
X142529861Y-86404455D01*
X143358000Y-87232595D01*
X144186139Y-86404455D01*
X144112005Y-86158336D01*
X144105254Y-86155910D01*
X144170862Y-86128734D01*
X144488800Y-85810796D01*
X144488800Y-86621127D01*
X144365745Y-86584061D01*
X143537605Y-87412200D01*
X144365745Y-88240339D01*
X144488800Y-88203273D01*
X144488800Y-89105342D01*
X143024290Y-90569853D01*
X142958748Y-90613647D01*
X142914954Y-90679189D01*
X142914951Y-90679192D01*
X142785246Y-90873309D01*
X142724322Y-91179600D01*
X142739701Y-91256917D01*
X142739701Y-92221929D01*
X142628399Y-92147559D01*
X142088000Y-92040067D01*
X141547600Y-92147559D01*
X141089471Y-92453672D01*
X140818000Y-92859957D01*
X140567068Y-92484410D01*
X140609553Y-92441925D01*
X140683449Y-92392549D01*
X140879052Y-92099810D01*
X140930400Y-91841665D01*
X140930400Y-91841661D01*
X140947737Y-91754500D01*
X140930400Y-91667339D01*
X140930400Y-88419945D01*
X142529861Y-88419945D01*
X142603995Y-88666064D01*
X143141223Y-88859165D01*
X143711454Y-88831978D01*
X144112005Y-88666064D01*
X144186139Y-88419945D01*
X143358000Y-87591805D01*
X142529861Y-88419945D01*
X140930400Y-88419945D01*
X140930400Y-87195423D01*
X141911035Y-87195423D01*
X141938222Y-87765654D01*
X142104136Y-88166205D01*
X142350255Y-88240339D01*
X143178395Y-87412200D01*
X142350255Y-86584061D01*
X142104136Y-86658195D01*
X141911035Y-87195423D01*
X140930400Y-87195423D01*
X140930400Y-85797200D01*
X142213604Y-85797200D01*
X142545138Y-86128734D01*
X142545138Y-86128734D01*
G37*
X142545138Y-86128734D02*
X142610299Y-86155725D01*
X142603995Y-86158336D01*
X142529861Y-86404455D01*
X143358000Y-87232595D01*
X144186139Y-86404455D01*
X144112005Y-86158336D01*
X144105254Y-86155910D01*
X144170862Y-86128734D01*
X144488800Y-85810796D01*
X144488800Y-86621127D01*
X144365745Y-86584061D01*
X143537605Y-87412200D01*
X144365745Y-88240339D01*
X144488800Y-88203273D01*
X144488800Y-89105342D01*
X143024290Y-90569853D01*
X142958748Y-90613647D01*
X142914954Y-90679189D01*
X142914951Y-90679192D01*
X142785246Y-90873309D01*
X142724322Y-91179600D01*
X142739701Y-91256917D01*
X142739701Y-92221929D01*
X142628399Y-92147559D01*
X142088000Y-92040067D01*
X141547600Y-92147559D01*
X141089471Y-92453672D01*
X140818000Y-92859957D01*
X140567068Y-92484410D01*
X140609553Y-92441925D01*
X140683449Y-92392549D01*
X140879052Y-92099810D01*
X140930400Y-91841665D01*
X140930400Y-91841661D01*
X140947737Y-91754500D01*
X140930400Y-91667339D01*
X140930400Y-88419945D01*
X142529861Y-88419945D01*
X142603995Y-88666064D01*
X143141223Y-88859165D01*
X143711454Y-88831978D01*
X144112005Y-88666064D01*
X144186139Y-88419945D01*
X143358000Y-87591805D01*
X142529861Y-88419945D01*
X140930400Y-88419945D01*
X140930400Y-87195423D01*
X141911035Y-87195423D01*
X141938222Y-87765654D01*
X142104136Y-88166205D01*
X142350255Y-88240339D01*
X143178395Y-87412200D01*
X142350255Y-86584061D01*
X142104136Y-86658195D01*
X141911035Y-87195423D01*
X140930400Y-87195423D01*
X140930400Y-85797200D01*
X142213604Y-85797200D01*
X142545138Y-86128734D01*
G36*
X170682701Y-92223933D02*
X170568399Y-92147559D01*
X170028000Y-92040067D01*
X169487600Y-92147559D01*
X169373300Y-92223932D01*
X169373300Y-80140468D01*
X169487601Y-80216841D01*
X170028000Y-80324333D01*
X170568400Y-80216841D01*
X170682700Y-80140468D01*
X170682701Y-92223933D01*
X170682701Y-92223933D01*
G37*
X170682701Y-92223933D02*
X170568399Y-92147559D01*
X170028000Y-92040067D01*
X169487600Y-92147559D01*
X169373300Y-92223932D01*
X169373300Y-80140468D01*
X169487601Y-80216841D01*
X170028000Y-80324333D01*
X170568400Y-80216841D01*
X170682700Y-80140468D01*
X170682701Y-92223933D01*
G36*
X164407601Y-84026841D02*
X164948000Y-84134333D01*
X165263300Y-84071616D01*
X165263301Y-88314706D01*
X165075000Y-88422544D01*
X165075000Y-89865200D01*
X165095000Y-89865200D01*
X165095000Y-90119200D01*
X165075000Y-90119200D01*
X165075000Y-91561856D01*
X165263301Y-91669694D01*
X165263301Y-92102784D01*
X164948000Y-92040067D01*
X164407600Y-92147559D01*
X164293300Y-92223932D01*
X164293300Y-91538910D01*
X164535316Y-91670373D01*
X164606815Y-91684518D01*
X164821000Y-91561856D01*
X164821000Y-90119200D01*
X164801000Y-90119200D01*
X164801000Y-89865200D01*
X164821000Y-89865200D01*
X164821000Y-88422544D01*
X164606815Y-88299882D01*
X164535316Y-88314027D01*
X164293300Y-88445490D01*
X164293300Y-83950468D01*
X164407601Y-84026841D01*
X164407601Y-84026841D01*
G37*
X164407601Y-84026841D02*
X164948000Y-84134333D01*
X165263300Y-84071616D01*
X165263301Y-88314706D01*
X165075000Y-88422544D01*
X165075000Y-89865200D01*
X165095000Y-89865200D01*
X165095000Y-90119200D01*
X165075000Y-90119200D01*
X165075000Y-91561856D01*
X165263301Y-91669694D01*
X165263301Y-92102784D01*
X164948000Y-92040067D01*
X164407600Y-92147559D01*
X164293300Y-92223932D01*
X164293300Y-91538910D01*
X164535316Y-91670373D01*
X164606815Y-91684518D01*
X164821000Y-91561856D01*
X164821000Y-90119200D01*
X164801000Y-90119200D01*
X164801000Y-89865200D01*
X164821000Y-89865200D01*
X164821000Y-88422544D01*
X164606815Y-88299882D01*
X164535316Y-88314027D01*
X164293300Y-88445490D01*
X164293300Y-83950468D01*
X164407601Y-84026841D01*
G36*
X136136471Y-76392828D02*
X136594600Y-76698941D01*
X137135000Y-76806433D01*
X137468701Y-76740056D01*
X137468701Y-82900583D01*
X137453322Y-82977900D01*
X137514246Y-83284191D01*
X137643951Y-83478308D01*
X137643954Y-83478311D01*
X137687748Y-83543853D01*
X137753290Y-83587647D01*
X138310500Y-84144858D01*
X138310500Y-85653300D01*
X138105426Y-85653300D01*
X137725020Y-85810869D01*
X137433869Y-86102020D01*
X137276300Y-86482426D01*
X137276300Y-86613142D01*
X134534492Y-89354951D01*
X134468947Y-89398747D01*
X134328700Y-89608641D01*
X134328700Y-89213212D01*
X134344078Y-89135900D01*
X134328700Y-89058588D01*
X134328700Y-89058584D01*
X134283154Y-88829608D01*
X134109653Y-88569947D01*
X134044108Y-88526151D01*
X133512626Y-87994669D01*
X133734641Y-87662400D01*
X133842133Y-87122000D01*
X133734641Y-86581600D01*
X133428529Y-86123471D01*
X133022244Y-85852000D01*
X133428529Y-85580529D01*
X133734641Y-85122400D01*
X133842133Y-84582000D01*
X133734641Y-84041600D01*
X133428529Y-83583471D01*
X133022244Y-83312000D01*
X133428529Y-83040529D01*
X133734641Y-82582400D01*
X133842133Y-82042000D01*
X133734641Y-81501600D01*
X133512626Y-81169331D01*
X134062111Y-80619847D01*
X134127653Y-80576053D01*
X134171447Y-80510511D01*
X134171449Y-80510509D01*
X134301153Y-80316393D01*
X134301154Y-80316392D01*
X134346700Y-80087416D01*
X134346700Y-80087412D01*
X134362078Y-80010101D01*
X134346700Y-79932790D01*
X134346700Y-77825010D01*
X134362078Y-77747699D01*
X134346700Y-77670388D01*
X134346700Y-77670384D01*
X134301154Y-77441408D01*
X134279700Y-77409300D01*
X134279700Y-76743716D01*
X134595000Y-76806433D01*
X135135399Y-76698941D01*
X135593528Y-76392829D01*
X135865000Y-75986543D01*
X136136471Y-76392828D01*
X136136471Y-76392828D01*
G37*
X136136471Y-76392828D02*
X136594600Y-76698941D01*
X137135000Y-76806433D01*
X137468701Y-76740056D01*
X137468701Y-82900583D01*
X137453322Y-82977900D01*
X137514246Y-83284191D01*
X137643951Y-83478308D01*
X137643954Y-83478311D01*
X137687748Y-83543853D01*
X137753290Y-83587647D01*
X138310500Y-84144858D01*
X138310500Y-85653300D01*
X138105426Y-85653300D01*
X137725020Y-85810869D01*
X137433869Y-86102020D01*
X137276300Y-86482426D01*
X137276300Y-86613142D01*
X134534492Y-89354951D01*
X134468947Y-89398747D01*
X134328700Y-89608641D01*
X134328700Y-89213212D01*
X134344078Y-89135900D01*
X134328700Y-89058588D01*
X134328700Y-89058584D01*
X134283154Y-88829608D01*
X134109653Y-88569947D01*
X134044108Y-88526151D01*
X133512626Y-87994669D01*
X133734641Y-87662400D01*
X133842133Y-87122000D01*
X133734641Y-86581600D01*
X133428529Y-86123471D01*
X133022244Y-85852000D01*
X133428529Y-85580529D01*
X133734641Y-85122400D01*
X133842133Y-84582000D01*
X133734641Y-84041600D01*
X133428529Y-83583471D01*
X133022244Y-83312000D01*
X133428529Y-83040529D01*
X133734641Y-82582400D01*
X133842133Y-82042000D01*
X133734641Y-81501600D01*
X133512626Y-81169331D01*
X134062111Y-80619847D01*
X134127653Y-80576053D01*
X134171447Y-80510511D01*
X134171449Y-80510509D01*
X134301153Y-80316393D01*
X134301154Y-80316392D01*
X134346700Y-80087416D01*
X134346700Y-80087412D01*
X134362078Y-80010101D01*
X134346700Y-79932790D01*
X134346700Y-77825010D01*
X134362078Y-77747699D01*
X134346700Y-77670388D01*
X134346700Y-77670384D01*
X134301154Y-77441408D01*
X134279700Y-77409300D01*
X134279700Y-76743716D01*
X134595000Y-76806433D01*
X135135399Y-76698941D01*
X135593528Y-76392829D01*
X135865000Y-75986543D01*
X136136471Y-76392828D01*
G36*
X166947601Y-80216841D02*
X167488000Y-80324333D01*
X167803300Y-80261616D01*
X167803300Y-87539607D01*
X167764174Y-87523400D01*
X167352426Y-87523400D01*
X166972020Y-87680969D01*
X166833300Y-87819689D01*
X166833300Y-80140468D01*
X166947601Y-80216841D01*
X166947601Y-80216841D01*
G37*
X166947601Y-80216841D02*
X167488000Y-80324333D01*
X167803300Y-80261616D01*
X167803300Y-87539607D01*
X167764174Y-87523400D01*
X167352426Y-87523400D01*
X166972020Y-87680969D01*
X166833300Y-87819689D01*
X166833300Y-80140468D01*
X166947601Y-80216841D01*
G36*
X143629472Y-79910729D02*
X143834648Y-80047823D01*
X143888546Y-80318791D01*
X144018251Y-80512908D01*
X144018254Y-80512911D01*
X144062048Y-80578453D01*
X144127590Y-80622247D01*
X144488801Y-80983459D01*
X144488801Y-84013605D01*
X144170862Y-83695666D01*
X143643439Y-83477200D01*
X143072561Y-83477200D01*
X142545138Y-83695666D01*
X142213604Y-84027200D01*
X140930400Y-84027200D01*
X140930400Y-82243500D01*
X141193474Y-82243500D01*
X141573880Y-82085931D01*
X141865031Y-81794780D01*
X142022600Y-81414374D01*
X142022600Y-81002626D01*
X141865031Y-80622220D01*
X141772600Y-80529789D01*
X141772600Y-80261596D01*
X142088000Y-80324333D01*
X142628400Y-80216841D01*
X143086529Y-79910729D01*
X143358000Y-79504444D01*
X143629472Y-79910729D01*
X143629472Y-79910729D01*
G37*
X143629472Y-79910729D02*
X143834648Y-80047823D01*
X143888546Y-80318791D01*
X144018251Y-80512908D01*
X144018254Y-80512911D01*
X144062048Y-80578453D01*
X144127590Y-80622247D01*
X144488801Y-80983459D01*
X144488801Y-84013605D01*
X144170862Y-83695666D01*
X143643439Y-83477200D01*
X143072561Y-83477200D01*
X142545138Y-83695666D01*
X142213604Y-84027200D01*
X140930400Y-84027200D01*
X140930400Y-82243500D01*
X141193474Y-82243500D01*
X141573880Y-82085931D01*
X141865031Y-81794780D01*
X142022600Y-81414374D01*
X142022600Y-81002626D01*
X141865031Y-80622220D01*
X141772600Y-80529789D01*
X141772600Y-80261596D01*
X142088000Y-80324333D01*
X142628400Y-80216841D01*
X143086529Y-79910729D01*
X143358000Y-79504444D01*
X143629472Y-79910729D01*
G36*
X132709700Y-77603388D02*
X132694322Y-77680700D01*
X132709700Y-77758012D01*
X132709700Y-77758015D01*
X132755246Y-77986991D01*
X132776701Y-78019100D01*
X132776701Y-78182033D01*
X132557000Y-78117000D01*
X132207000Y-78117000D01*
X132207000Y-79375000D01*
X132227000Y-79375000D01*
X132227000Y-79629000D01*
X132207000Y-79629000D01*
X132207000Y-79649000D01*
X131953000Y-79649000D01*
X131953000Y-79629000D01*
X131933000Y-79629000D01*
X131933000Y-79375000D01*
X131953000Y-79375000D01*
X131953000Y-78117000D01*
X131682257Y-78117000D01*
X132555408Y-77243849D01*
X132620953Y-77200053D01*
X132709700Y-77067234D01*
X132709700Y-77603388D01*
X132709700Y-77603388D01*
G37*
X132709700Y-77603388D02*
X132694322Y-77680700D01*
X132709700Y-77758012D01*
X132709700Y-77758015D01*
X132755246Y-77986991D01*
X132776701Y-78019100D01*
X132776701Y-78182033D01*
X132557000Y-78117000D01*
X132207000Y-78117000D01*
X132207000Y-79375000D01*
X132227000Y-79375000D01*
X132227000Y-79629000D01*
X132207000Y-79629000D01*
X132207000Y-79649000D01*
X131953000Y-79649000D01*
X131953000Y-79629000D01*
X131933000Y-79629000D01*
X131933000Y-79375000D01*
X131953000Y-79375000D01*
X131953000Y-78117000D01*
X131682257Y-78117000D01*
X132555408Y-77243849D01*
X132620953Y-77200053D01*
X132709700Y-77067234D01*
X132709700Y-77603388D01*
G36*
X130169601Y-73465966D02*
X130055400Y-73389659D01*
X129515000Y-73282167D01*
X128974601Y-73389659D01*
X128516472Y-73695771D01*
X128245000Y-74102056D01*
X127973529Y-73695771D01*
X127515400Y-73389659D01*
X127252160Y-73337297D01*
X128915108Y-71674349D01*
X128980653Y-71630553D01*
X129154154Y-71370892D01*
X129199700Y-71141916D01*
X129199700Y-71141912D01*
X129215078Y-71064600D01*
X129199700Y-70987288D01*
X129199700Y-69123716D01*
X129515000Y-69186433D01*
X130055399Y-69078941D01*
X130169600Y-69002634D01*
X130169601Y-73465966D01*
X130169601Y-73465966D01*
G37*
X130169601Y-73465966D02*
X130055400Y-73389659D01*
X129515000Y-73282167D01*
X128974601Y-73389659D01*
X128516472Y-73695771D01*
X128245000Y-74102056D01*
X127973529Y-73695771D01*
X127515400Y-73389659D01*
X127252160Y-73337297D01*
X128915108Y-71674349D01*
X128980653Y-71630553D01*
X129154154Y-71370892D01*
X129199700Y-71141916D01*
X129199700Y-71141912D01*
X129215078Y-71064600D01*
X129199700Y-70987288D01*
X129199700Y-69123716D01*
X129515000Y-69186433D01*
X130055399Y-69078941D01*
X130169600Y-69002634D01*
X130169601Y-73465966D01*
G36*
X136136471Y-68772828D02*
X136594600Y-69078941D01*
X137135000Y-69186433D01*
X137468700Y-69120056D01*
X137468700Y-73348544D01*
X137135000Y-73282167D01*
X136594601Y-73389659D01*
X136136472Y-73695771D01*
X135865000Y-74102056D01*
X135593529Y-73695771D01*
X135135400Y-73389659D01*
X134595000Y-73282167D01*
X134279700Y-73344884D01*
X134279700Y-69123716D01*
X134595000Y-69186433D01*
X135135399Y-69078941D01*
X135593528Y-68772829D01*
X135865000Y-68366543D01*
X136136471Y-68772828D01*
X136136471Y-68772828D01*
G37*
X136136471Y-68772828D02*
X136594600Y-69078941D01*
X137135000Y-69186433D01*
X137468700Y-69120056D01*
X137468700Y-73348544D01*
X137135000Y-73282167D01*
X136594601Y-73389659D01*
X136136472Y-73695771D01*
X135865000Y-74102056D01*
X135593529Y-73695771D01*
X135135400Y-73389659D01*
X134595000Y-73282167D01*
X134279700Y-73344884D01*
X134279700Y-69123716D01*
X134595000Y-69186433D01*
X135135399Y-69078941D01*
X135593528Y-68772829D01*
X135865000Y-68366543D01*
X136136471Y-68772828D01*
G36*
X153841700Y-73529532D02*
X153727400Y-73453159D01*
X153187000Y-73345667D01*
X152871700Y-73408384D01*
X152871700Y-69187216D01*
X153187000Y-69249933D01*
X153727399Y-69142441D01*
X153841701Y-69066067D01*
X153841700Y-73529532D01*
X153841700Y-73529532D01*
G37*
X153841700Y-73529532D02*
X153727400Y-73453159D01*
X153187000Y-73345667D01*
X152871700Y-73408384D01*
X152871700Y-69187216D01*
X153187000Y-69249933D01*
X153727399Y-69142441D01*
X153841701Y-69066067D01*
X153841700Y-73529532D01*
G36*
X156381700Y-73529532D02*
X156267400Y-73453159D01*
X155727000Y-73345667D01*
X155411700Y-73408384D01*
X155411700Y-69187216D01*
X155727000Y-69249933D01*
X156267399Y-69142441D01*
X156381701Y-69066067D01*
X156381700Y-73529532D01*
X156381700Y-73529532D01*
G37*
X156381700Y-73529532D02*
X156267400Y-73453159D01*
X155727000Y-73345667D01*
X155411700Y-73408384D01*
X155411700Y-69187216D01*
X155727000Y-69249933D01*
X156267399Y-69142441D01*
X156381701Y-69066067D01*
X156381700Y-73529532D01*
G36*
X157080423Y-63975777D02*
X157323973Y-64138512D01*
X157375546Y-64397791D01*
X157505251Y-64591908D01*
X157505254Y-64591911D01*
X157549048Y-64657453D01*
X157614590Y-64701247D01*
X158774443Y-65861100D01*
X158679684Y-65809627D01*
X158608185Y-65795482D01*
X158394000Y-65918144D01*
X158394000Y-67360800D01*
X158414000Y-67360800D01*
X158414000Y-67614800D01*
X158394000Y-67614800D01*
X158394000Y-69057456D01*
X158608185Y-69180118D01*
X158679684Y-69165973D01*
X158921701Y-69034510D01*
X158921700Y-73529532D01*
X158807400Y-73453159D01*
X158267000Y-73345667D01*
X157951700Y-73408384D01*
X157951700Y-69165294D01*
X158140000Y-69057456D01*
X158140000Y-67614800D01*
X158120000Y-67614800D01*
X158120000Y-67360800D01*
X158140000Y-67360800D01*
X158140000Y-65918144D01*
X157951700Y-65810306D01*
X157951700Y-65760512D01*
X157967078Y-65683200D01*
X157951700Y-65605888D01*
X157951700Y-65605884D01*
X157906154Y-65376908D01*
X157732653Y-65117247D01*
X157667108Y-65073451D01*
X156585513Y-63991856D01*
X156609577Y-63975777D01*
X156845000Y-63623442D01*
X157080423Y-63975777D01*
X157080423Y-63975777D01*
G37*
X157080423Y-63975777D02*
X157323973Y-64138512D01*
X157375546Y-64397791D01*
X157505251Y-64591908D01*
X157505254Y-64591911D01*
X157549048Y-64657453D01*
X157614590Y-64701247D01*
X158774443Y-65861100D01*
X158679684Y-65809627D01*
X158608185Y-65795482D01*
X158394000Y-65918144D01*
X158394000Y-67360800D01*
X158414000Y-67360800D01*
X158414000Y-67614800D01*
X158394000Y-67614800D01*
X158394000Y-69057456D01*
X158608185Y-69180118D01*
X158679684Y-69165973D01*
X158921701Y-69034510D01*
X158921700Y-73529532D01*
X158807400Y-73453159D01*
X158267000Y-73345667D01*
X157951700Y-73408384D01*
X157951700Y-69165294D01*
X158140000Y-69057456D01*
X158140000Y-67614800D01*
X158120000Y-67614800D01*
X158120000Y-67360800D01*
X158140000Y-67360800D01*
X158140000Y-65918144D01*
X157951700Y-65810306D01*
X157951700Y-65760512D01*
X157967078Y-65683200D01*
X157951700Y-65605888D01*
X157951700Y-65605884D01*
X157906154Y-65376908D01*
X157732653Y-65117247D01*
X157667108Y-65073451D01*
X156585513Y-63991856D01*
X156609577Y-63975777D01*
X156845000Y-63623442D01*
X157080423Y-63975777D01*
G36*
X132709700Y-73466032D02*
X132595400Y-73389659D01*
X132055000Y-73282167D01*
X131739600Y-73344904D01*
X131739600Y-69123696D01*
X132055000Y-69186433D01*
X132595399Y-69078941D01*
X132709701Y-69002567D01*
X132709700Y-73466032D01*
X132709700Y-73466032D01*
G37*
X132709700Y-73466032D02*
X132595400Y-73389659D01*
X132055000Y-73282167D01*
X131739600Y-73344904D01*
X131739600Y-69123696D01*
X132055000Y-69186433D01*
X132595399Y-69078941D01*
X132709701Y-69002567D01*
X132709700Y-73466032D01*
G36*
X127629701Y-70739442D02*
X125034892Y-73334251D01*
X124969347Y-73378047D01*
X124963208Y-73387234D01*
X124435000Y-73282167D01*
X124095900Y-73349618D01*
X124095900Y-71413557D01*
X126432152Y-69077305D01*
X126434600Y-69078941D01*
X126975000Y-69186433D01*
X127515399Y-69078941D01*
X127629700Y-69002567D01*
X127629701Y-70739442D01*
X127629701Y-70739442D01*
G37*
X127629701Y-70739442D02*
X125034892Y-73334251D01*
X124969347Y-73378047D01*
X124963208Y-73387234D01*
X124435000Y-73282167D01*
X124095900Y-73349618D01*
X124095900Y-71413557D01*
X126432152Y-69077305D01*
X126434600Y-69078941D01*
X126975000Y-69186433D01*
X127515399Y-69078941D01*
X127629700Y-69002567D01*
X127629701Y-70739442D01*
G36*
X137468700Y-64266758D02*
X137468700Y-65728544D01*
X137135000Y-65662167D01*
X136594601Y-65769659D01*
X136136472Y-66075771D01*
X135865000Y-66482056D01*
X135593529Y-66075771D01*
X135135400Y-65769659D01*
X134595000Y-65662167D01*
X134054601Y-65769659D01*
X133596472Y-66075771D01*
X133325000Y-66482056D01*
X133053529Y-66075771D01*
X132595400Y-65769659D01*
X132127975Y-65676682D01*
X133923408Y-63881249D01*
X133988953Y-63837453D01*
X134162454Y-63577792D01*
X134179441Y-63492392D01*
X134408490Y-63446831D01*
X135032009Y-63030209D01*
X135448631Y-62406690D01*
X135475177Y-62273234D01*
X137468700Y-64266758D01*
X137468700Y-64266758D01*
G37*
X137468700Y-64266758D02*
X137468700Y-65728544D01*
X137135000Y-65662167D01*
X136594601Y-65769659D01*
X136136472Y-66075771D01*
X135865000Y-66482056D01*
X135593529Y-66075771D01*
X135135400Y-65769659D01*
X134595000Y-65662167D01*
X134054601Y-65769659D01*
X133596472Y-66075771D01*
X133325000Y-66482056D01*
X133053529Y-66075771D01*
X132595400Y-65769659D01*
X132127975Y-65676682D01*
X133923408Y-63881249D01*
X133988953Y-63837453D01*
X134162454Y-63577792D01*
X134179441Y-63492392D01*
X134408490Y-63446831D01*
X135032009Y-63030209D01*
X135448631Y-62406690D01*
X135475177Y-62273234D01*
X137468700Y-64266758D01*
G04 #@! TD*
M02*
